<svg width="448" height="336" viewBox="0 0 448 336" fill="none" xmlns="http://www.w3.org/2000/svg">
<rect width="448" height="336" fill="url(#paint0_linear_1_60)"/>
<g clip-path="url(#clip0_1_60)">
<path fill-rule="evenodd" clip-rule="evenodd" d="M344.492 173.694V172.489H331.3C324.286 172.489 319.709 175.82 319.709 181.276C319.709 186.089 323.538 189.142 329.521 189.142C338.973 189.142 344.492 183.284 344.492 173.694ZM351.97 164.623V194.696H344.492V186.643C341.964 192.009 335.698 195.43 328.399 195.43C318.49 195.43 312.037 189.89 312.037 181.373C312.037 172.489 319.425 166.832 330.837 166.832H341.494C343.571 166.832 344.492 165.814 344.492 164.332C344.492 157.948 339.908 153.599 331.862 153.599C324.937 153.599 319.522 157.858 319.149 162.947H312.037C312.882 153.946 321.482 147.312 332.049 147.312C344.304 147.326 351.97 154.257 351.97 164.623ZM294.657 171.374C294.657 160.828 288.48 153.987 279.035 153.987C269.59 153.987 263.323 160.828 263.323 171.374C263.323 181.92 269.556 188.775 279.035 188.775C288.514 188.775 294.657 181.9 294.657 171.374ZM255.658 171.374C255.658 157.775 263.697 147.326 278.378 147.326C285.025 147.326 291.195 150.656 293.999 155.635V123.918H301.484V194.696H293.999V187.017C291.229 192.106 284.997 195.43 278.378 195.43C263.697 195.43 255.658 184.974 255.658 171.374ZM238.715 173.694V172.489H225.558C218.543 172.489 213.959 175.82 213.959 181.276C213.959 186.089 217.795 189.142 223.785 189.142C233.175 189.142 238.715 183.284 238.715 173.694ZM246.199 164.623V194.696H238.715V186.643C236.193 192.009 229.927 195.43 222.629 195.43C212.72 195.43 206.266 189.89 206.266 181.373C206.266 172.489 213.655 166.832 225.059 166.832H235.723C237.8 166.832 238.715 165.814 238.715 164.332C238.715 157.948 234.137 153.599 226.091 153.599C219.167 153.599 213.745 157.858 213.371 162.947H206.266C207.104 153.946 215.711 147.312 226.278 147.312C238.528 147.326 246.199 154.257 246.199 164.623Z" fill="white"/>
<path d="M117.752 195.705C117.15 195.776 116.591 196.05 116.164 196.48C115.737 196.91 115.469 197.472 115.402 198.075C115.402 198.113 115.402 198.154 115.395 198.193V198.154C115.389 198.225 115.385 198.296 115.385 198.368V206.423C115.385 206.776 115.315 207.125 115.18 207.45C115.045 207.776 114.847 208.072 114.598 208.321C114.348 208.569 114.052 208.767 113.726 208.901C113.4 209.035 113.051 209.104 112.698 209.103H98.9626C98.7363 209.103 98.5108 209.074 98.2917 209.018C98.2481 209.007 98.2064 208.995 98.1637 208.982C98.0802 208.956 97.998 208.926 97.9176 208.891C97.4319 208.686 97.0173 208.343 96.7254 207.904C96.4335 207.465 96.2772 206.95 96.276 206.423V165.446C96.284 152.495 102.214 140.932 111.507 133.32L111.516 133.312C111.686 133.174 111.857 133.036 112.029 132.9L112.057 132.877C112.4 132.605 112.747 132.341 113.098 132.083L113.19 132.016C113.345 131.901 113.502 131.787 113.66 131.674L113.711 131.638C113.884 131.514 114.059 131.392 114.235 131.271L114.329 131.206C114.472 131.107 114.616 131.008 114.761 130.908L114.889 130.823C115.326 130.534 115.768 130.253 116.216 129.979L116.235 129.967C116.499 129.804 116.769 129.644 117.044 129.487L117.066 129.474C117.341 129.315 117.617 129.16 117.896 129.009L117.906 129.003C121.617 126.973 125.619 125.527 129.77 124.714H129.786L130.231 124.63L130.287 124.62C130.426 124.594 130.565 124.569 130.704 124.546L130.791 124.531L131.188 124.466L131.302 124.448L131.674 124.392L131.812 124.372C131.93 124.354 132.049 124.338 132.167 124.322L132.323 124.3L132.663 124.258L132.838 124.237L133.162 124.199L133.355 124.178L133.66 124.148L133.869 124.128L134.167 124.101L134.39 124.083L134.677 124.06L134.914 124.043C135.006 124.037 135.097 124.03 135.19 124.026C135.282 124.021 135.358 124.016 135.443 124.011L135.706 123.997C135.795 123.992 135.885 123.988 135.976 123.985L136.224 123.974L136.522 123.964L136.744 123.958L137.084 123.949H137.268C137.443 123.949 137.617 123.949 137.792 123.949C160.729 123.949 179.298 142.529 179.308 165.455V206.423C179.308 206.776 179.238 207.125 179.103 207.45C178.968 207.776 178.77 208.071 178.521 208.32C178.271 208.569 177.975 208.766 177.65 208.901C177.324 209.035 176.975 209.104 176.622 209.103H162.887C162.175 209.103 161.493 208.821 160.989 208.318C160.486 207.816 160.202 207.135 160.2 206.423V198.364C160.198 197.653 159.915 196.972 159.411 196.469C158.908 195.967 158.225 195.685 157.514 195.685H137.792L117.752 195.705ZM160.2 163.736C160.2 151.367 150.169 141.341 137.792 141.341C136.838 141.341 135.886 141.401 134.94 141.522C134.566 141.569 134.195 141.626 133.827 141.691C133.275 141.79 132.731 141.909 132.194 142.047C129.024 142.865 126.071 144.37 123.547 146.455C123.409 146.57 123.272 146.685 123.136 146.803C120.704 148.903 118.753 151.503 117.417 154.425C116.081 157.348 115.392 160.524 115.395 163.737C115.395 176.106 125.419 186.131 137.79 186.131C150.169 186.131 160.2 176.106 160.2 163.736Z" fill="white"/>
</g>
<defs>
<linearGradient id="paint0_linear_1_60" x1="224" y1="0" x2="224" y2="336" gradientUnits="userSpaceOnUse">
<stop stop-color="#E7BB56"/>
<stop offset="0.5" stop-color="#9875D4"/>
<stop offset="1" stop-color="#9DEAEC"/>
</linearGradient>
<clipPath id="clip0_1_60">
<rect width="255.797" height="85.2201" fill="white" transform="translate(96.2032 123.897)"/>
</clipPath>
</defs>
</svg>
