<svg width="448" height="336" viewBox="0 0 448 336" fill="none" xmlns="http://www.w3.org/2000/svg">
<rect width="448" height="336" fill="white"/>
<path d="M135.69 203.453C134.71 203.14 133.797 202.647 132.999 201.999C130.895 200.271 126.798 189.448 125.601 186.67C124.75 184.706 123.885 182.749 123.004 180.798C120.678 175.498 118.055 170.333 115.148 165.327C112.739 161.379 110.539 158.769 108.931 158.769C105.83 158.769 101.209 166.086 95.9355 176.069C90.278 186.77 84.9361 200.283 85.4749 202.483C85.4749 202.571 85.4286 202.659 85.2868 202.753L84.9919 202.901C83.5608 203.372 82.0872 203.703 80.5921 203.889C78.2966 204.017 75.9956 203.771 73.7787 203.162C68.397 201.28 67.2667 196.888 68.397 191.661C70.3099 182.593 89.559 152.069 95.816 142.471C98.8082 137.87 102.763 131.5 108.972 131.5C114.353 131.5 117.952 136.592 120.952 140.534C122.774 142.935 127.429 150.36 131.909 157.8C134.048 161.364 136.154 164.93 137.888 167.95C138.797 169.544 139.685 171.138 140.525 172.78C142.411 176.339 144.03 180.033 145.369 183.832C146.586 187.239 147.464 190.758 147.992 194.337C148.955 201.234 141.697 204.299 135.69 203.453Z" fill="url(#paint0_linear_1_64)"/>
<path opacity="0.06" d="M142.742 177.322C140.67 177.186 132.221 178.613 123.983 182.971C123.664 182.244 123.337 181.517 123.007 180.792C120.68 175.492 118.057 170.327 115.151 165.321C114.976 165.031 114.8 164.749 114.627 164.481C119.509 160.848 124.447 157.169 129.881 154.457C130.547 155.554 131.226 156.678 131.899 157.794C134.038 161.36 136.144 164.924 137.879 167.945C138.787 169.531 139.675 171.133 140.515 172.774C141.303 174.272 142.045 175.788 142.742 177.322Z" fill="black"/>
<path opacity="0.06" d="M135.693 203.453C134.714 203.14 133.801 202.647 133.002 202C131.947 201.132 130.393 197.991 128.953 194.715C136.36 191.93 142.358 183.032 143.927 180.078C144.437 181.323 144.915 182.568 145.362 183.832C146.574 187.241 147.453 190.76 147.986 194.339C148.958 201.234 141.7 204.301 135.693 203.453Z" fill="black"/>
<path d="M162.307 180.005C161.634 187.679 157.51 196.552 152.264 200.283C147.018 204.015 142.9 204.117 139.208 204.038H138.744C137.704 203.993 136.676 203.8 135.69 203.465C134.711 203.153 133.798 202.66 132.999 202.013C137.56 202.868 145.433 190.728 147.101 183.999C147.877 180.857 149.363 175.042 145.637 173.088C143.46 171.945 140.79 172.609 138.606 173.363C130.417 176.177 123.092 181.304 115.633 185.598C108.937 189.455 102.269 193.37 95.5721 197.236C93.216 198.592 90.8614 199.946 88.4734 201.254C87.6764 201.691 86.2416 202.823 85.2756 202.81C80.7084 202.75 91.8944 182.482 95.9244 176.126C97.9011 174.781 107.581 169.695 115.142 165.364C116.151 164.785 117.106 164.248 117.979 163.783C125.043 159.982 133.377 156.609 141.448 156.075C147.367 155.685 153.173 157.454 157.188 161.954C161.547 166.8 162.865 173.783 162.307 180.005Z" fill="url(#paint1_linear_1_64)"/>
<path opacity="0.06" d="M97.6682 196.019C90.9346 199.922 85.8366 202.807 85.2786 202.807C80.7115 202.746 91.8975 182.48 95.9258 176.123C96.3435 175.841 97.1039 175.39 98.113 174.819C97.2043 178.862 93.0883 192.118 97.6682 196.019Z" fill="black"/>
<path d="M172.202 166.198C172.202 156.487 178.844 149.577 187.652 149.577C192.623 149.577 195.991 151.48 198.096 154.115L198.26 150.247H206.637V182.283H198.26L198.096 178.411C195.991 181.08 192.629 182.95 187.652 182.95C178.844 182.95 172.202 175.907 172.202 166.198ZM189.319 157.221C184.194 157.221 180.713 161.09 180.713 166.198C180.713 171.307 184.18 175.339 189.319 175.339C194.457 175.339 198.061 171.335 198.061 166.198C198.061 161.062 194.423 157.221 189.319 157.221V157.221Z" fill="#42464D"/>
<path d="M236.578 154.115L236.742 150.247H244.986V195.631H236.411V178.91C234.276 181.347 230.705 182.95 226.001 182.95C216.927 182.95 210.487 176.074 210.487 166.396C210.487 156.654 216.927 149.577 226.001 149.577C231.139 149.577 234.443 151.446 236.578 154.115ZM227.771 157.252C222.646 157.252 219.093 161.192 219.093 166.362C219.093 171.437 222.663 175.274 227.771 175.274C232.806 175.274 236.476 171.437 236.476 166.362C236.476 161.288 232.8 157.252 227.771 157.252V157.252Z" fill="#42464D"/>
<path d="M271.86 150.24H280.401V169.093C280.401 177.202 274.296 182.943 265.253 182.943C256.209 182.943 250.272 177.27 250.272 169.294V150.24H258.847V168.225C258.847 172.298 261.484 175.059 265.253 175.059C269.223 175.059 271.86 172.291 271.86 168.225V150.24Z" fill="#42464D"/>
<path d="M283.852 166.198C283.852 156.487 290.49 149.577 299.297 149.577C304.268 149.577 307.64 151.48 309.741 154.115L309.909 150.247H318.282V182.283H309.909L309.741 178.411C307.64 181.08 304.275 182.95 299.297 182.95C290.49 182.95 283.852 175.907 283.852 166.198ZM300.964 157.221C295.84 157.221 292.358 161.09 292.358 166.198C292.358 171.307 295.83 175.339 300.964 175.339C306.099 175.339 309.707 171.335 309.707 166.198C309.707 161.062 306.072 157.221 300.964 157.221V157.221Z" fill="#42464D"/>
<path d="M354.681 162.159V182.283H346.109V164.36C346.109 159.917 343.239 157.525 339.502 157.525C335.764 157.525 332.396 159.917 332.396 164.36V182.283H323.855V150.24H331.996L332.163 153.944C333.831 151.706 337.268 149.57 342.037 149.57C349.444 149.577 354.681 154.45 354.681 162.159Z" fill="#42464D"/>
<path d="M370.332 157.354V170.535C370.332 173.873 372.197 175.339 375.067 175.339C376.659 175.31 378.247 175.181 379.823 174.953L379.85 182.239C378.569 182.612 377.25 182.842 375.918 182.922C373.082 183.021 370.151 182.973 367.524 181.788C365.61 180.942 364.037 179.474 363.062 177.622C362.177 175.799 361.741 173.791 361.791 171.765V157.351H356.386V150.24H361.822V139.961H370.141V150.24H377.708V157.348L370.332 157.354Z" fill="#42464D"/>
<defs>
<linearGradient id="paint0_linear_1_64" x1="46.17" y1="149.686" x2="147.909" y2="188.739" gradientUnits="userSpaceOnUse">
<stop offset="0.27" stop-color="#1DCAFF"/>
<stop offset="0.476171" stop-color="#1FB3FF"/>
<stop offset="0.656638" stop-color="#228AFF"/>
<stop offset="0.86" stop-color="#2371FF"/>
<stop offset="0.98" stop-color="#2468FF"/>
</linearGradient>
<linearGradient id="paint1_linear_1_64" x1="66.2417" y1="185.485" x2="145.205" y2="179.793" gradientUnits="userSpaceOnUse">
<stop stop-color="#2468FF"/>
<stop offset="0.2" stop-color="#2376FF"/>
<stop offset="0.57" stop-color="#209AFF"/>
<stop offset="1" stop-color="#1DCAFF"/>
</linearGradient>
</defs>
</svg>
