<svg width="448" height="336" viewBox="0 0 448 336" fill="none" xmlns="http://www.w3.org/2000/svg">
<rect width="448" height="336" fill="#00BD9D"/>
<path d="M176.692 166.504C176.692 157.439 182.587 151.55 191.042 151.55C199.61 151.55 205.605 157.666 205.605 166.559C205.605 176.132 198.73 181.004 192.183 181.004C188.309 181.004 185.09 179.304 183.178 176.19V192.22H176.686L176.692 166.504ZM199.064 166.277C199.064 161.348 195.845 157.836 191.097 157.836C186.349 157.836 183.184 161.348 183.184 166.277C183.184 171.206 186.352 174.717 191.097 174.717C195.842 174.717 199.064 171.206 199.064 166.277Z" fill="white"/>
<path d="M236.331 152.322H243.097V154.776C243.916 153.879 244.871 153.116 245.927 152.516C247.241 151.804 248.552 151.607 250.072 151.607C251.927 151.567 253.76 152.014 255.387 152.904L252.626 158.66C251.591 158.017 250.393 157.68 249.174 157.691C247.724 157.691 246.273 157.885 244.963 159.175C243.097 161.051 243.097 163.632 243.097 165.441V179.523H236.331V152.322Z" fill="white"/>
<path d="M278.168 152.322H284.933V179.513H278.168V176.672C275.198 179.898 271.539 180.353 269.47 180.353C260.496 180.353 255.387 173.384 255.387 165.886C255.387 157.036 261.876 151.61 269.537 151.61C271.679 151.61 275.404 152.128 278.168 155.485V152.322ZM262.289 166.013C262.289 170.727 265.465 174.669 270.365 174.669C274.646 174.669 278.581 171.76 278.581 166.077C278.581 160.136 274.637 157.291 270.365 157.291C265.465 157.294 262.289 161.169 262.289 166.013Z" fill="white"/>
<path d="M289.724 152.322H296.49V154.84C297.373 153.805 298.475 152.979 299.716 152.421C300.957 151.862 302.307 151.586 303.668 151.61C306.702 151.61 309.535 152.967 311.192 155.615C313.619 152.386 317.259 151.61 319.823 151.61C323.342 151.61 326.449 153.161 328.105 155.873C328.658 156.782 329.622 158.781 329.622 162.72V179.513H322.857V164.529C322.857 161.499 322.511 160.266 322.25 159.681C321.838 158.648 320.8 157.291 318.385 157.291C317.609 157.298 316.845 157.482 316.151 157.829C315.457 158.176 314.851 158.677 314.38 159.293C313.206 160.845 313.07 163.168 313.07 165.495V179.51H306.292V164.529C306.292 161.499 305.946 160.266 305.67 159.681C305.255 158.648 304.22 157.291 301.805 157.291C301.029 157.298 300.265 157.482 299.571 157.829C298.877 158.176 298.271 158.677 297.8 159.293C296.626 160.845 296.49 163.168 296.49 165.495V179.51H289.724V152.322Z" fill="white"/>
<path d="M344.609 166.013C344.609 156.594 351.484 151.801 358.031 151.801C361.905 151.801 365.124 153.473 367.036 156.536V140.482H373.528V166.065C373.528 174.981 367.633 180.78 359.178 180.78C350.619 180.777 344.609 174.763 344.609 166.013ZM367.036 166.292C367.036 161.444 363.871 157.988 359.123 157.988C354.375 157.988 351.156 161.441 351.156 166.292C351.156 171.142 354.375 174.596 359.123 174.596C363.871 174.596 367.06 171.139 367.06 166.292H367.036Z" fill="white"/>
<path d="M337.719 148.556C339.951 148.556 341.76 146.75 341.76 144.521C341.76 142.292 339.951 140.485 337.719 140.485C335.487 140.485 333.678 142.292 333.678 144.521C333.678 146.75 335.487 148.556 337.719 148.556Z" fill="white"/>
<path d="M210.128 189.333H217.079L232.439 152.319H225.437L219.418 167.995L212.698 152.319H205.489L215.865 175.863L210.128 189.333Z" fill="white"/>
<path d="M341.102 152.298H334.337V179.513H341.102V152.298Z" fill="white"/>
<path d="M157.081 180.086L133.775 192.508C133.741 192.528 133.703 192.538 133.663 192.538C133.623 192.536 133.585 192.525 133.551 192.505C133.516 192.485 133.488 192.457 133.469 192.423C133.45 192.389 133.439 192.35 133.439 192.311V183.101C133.44 183.059 133.45 183.019 133.469 182.982C133.491 182.948 133.521 182.918 133.557 182.898L143.338 177.69C143.393 177.66 143.441 177.619 143.478 177.568C143.516 177.519 143.542 177.461 143.553 177.399C143.569 177.338 143.569 177.275 143.553 177.214C143.538 177.154 143.508 177.098 143.465 177.053L129.046 160.351C128.99 160.287 128.916 160.241 128.833 160.22C128.752 160.201 128.666 160.206 128.587 160.236C128.507 160.264 128.439 160.317 128.39 160.387C128.342 160.456 128.316 160.537 128.314 160.62V195.201C128.314 195.276 128.293 195.35 128.254 195.413C128.216 195.479 128.16 195.533 128.093 195.568L118.891 200.451C118.827 200.484 118.757 200.5 118.685 200.5C118.613 200.497 118.543 200.476 118.482 200.439C118.418 200.403 118.366 200.351 118.33 200.288C118.295 200.226 118.276 200.156 118.275 200.085V135.438C118.275 135.352 118.3 135.269 118.348 135.198C118.396 135.129 118.465 135.076 118.545 135.047C118.626 135.018 118.713 135.013 118.796 135.034C118.879 135.055 118.953 135.101 119.01 135.165L157.206 179.45C157.246 179.497 157.275 179.553 157.291 179.614C157.306 179.674 157.308 179.737 157.297 179.798C157.287 179.862 157.262 179.923 157.225 179.975C157.187 180.028 157.138 180.071 157.081 180.101V180.086Z" fill="white"/>
<path d="M113.479 135.438V200.085C113.48 200.156 113.461 200.227 113.424 200.288C113.389 200.35 113.337 200.403 113.276 200.439C113.214 200.476 113.144 200.497 113.072 200.5C113.001 200.501 112.93 200.484 112.866 200.452L103.461 195.431L74.679 180.083C74.6248 180.054 74.5781 180.012 74.5425 179.962C74.5045 179.912 74.4786 179.854 74.4667 179.792C74.4545 179.732 74.4545 179.67 74.4667 179.61C74.4818 179.549 74.5121 179.493 74.5546 179.447L97.9152 152.362C97.9444 152.326 97.9852 152.301 98.0305 152.292C98.075 152.278 98.1226 152.278 98.167 152.292C98.2105 152.308 98.2484 152.336 98.2763 152.374C98.3033 152.412 98.3181 152.457 98.3187 152.504V165.347C98.3196 165.4 98.3001 165.452 98.2641 165.492L88.2889 177.053C88.2463 177.099 88.216 177.154 88.2009 177.214C88.1857 177.274 88.1857 177.336 88.2009 177.396C88.2118 177.457 88.2367 177.515 88.2737 177.565C88.311 177.616 88.3599 177.656 88.4163 177.684L102.812 185.482C102.875 185.516 102.946 185.534 103.018 185.533C103.091 185.531 103.161 185.511 103.223 185.473C103.285 185.436 103.337 185.384 103.373 185.321C103.409 185.259 103.428 185.188 103.428 185.115V146.099C103.428 146 103.464 145.905 103.528 145.83L112.723 135.165C112.777 135.097 112.852 135.048 112.936 135.026C113.02 134.998 113.11 134.998 113.194 135.026C113.275 135.056 113.346 135.111 113.394 135.183C113.451 135.256 113.481 135.346 113.479 135.438V135.438Z" fill="white"/>
</svg>
