<svg width="448" height="336" viewBox="0 0 448 336" fill="none" xmlns="http://www.w3.org/2000/svg">
<path d="M448 0H0V336H448V0Z" fill="black"/>
<path d="M133.659 148C139.601 148 144.74 150.696 148.434 155.078L142.974 159.966C140.725 157.269 137.353 155.584 133.659 155.584C127.235 155.584 122.095 160.808 122.095 167.718C122.095 174.627 127.235 179.683 133.659 179.683C137.353 179.683 140.725 177.998 142.974 175.302L148.434 180.189C144.901 184.571 139.601 187.436 133.659 187.436C122.898 187.436 114.065 179.178 114.065 167.718C114.065 156.258 122.738 148 133.659 148Z" fill="#D7F75B"/>
<path d="M163.532 148.675H171.562V179.179H185.695V186.931H163.532V148.675Z" fill="#D7F75B"/>
<path d="M213.158 148.675H220.385L235.482 186.931H226.97L224.561 180.527H209.303L206.573 186.931H198.061L213.158 148.675ZM221.991 173.617L216.691 159.798L211.391 173.617H221.991Z" fill="#D7F75B"/>
<path d="M251.865 174.799C253.631 177.832 256.843 179.855 261.019 179.855C265.034 179.855 266.48 177.832 266.48 176.147C266.48 172.777 262.465 171.934 257.325 170.08C252.025 168.058 248.492 165.193 248.492 158.957C248.492 152.048 254.274 148.171 261.019 148.171C267.122 148.171 270.977 151.205 273.225 154.575L267.765 159.126C266.48 157.272 264.231 155.755 261.18 155.755C258.128 155.755 256.362 157.103 256.362 158.957C256.362 162.159 259.253 162.328 265.195 164.687C271.78 167.384 274.51 170.586 274.51 175.979C274.51 182.72 270.174 187.607 261.019 187.607C253.15 187.607 248.331 183.731 246.083 179.181L251.865 174.799Z" fill="#D7F75B"/>
<path d="M292.658 174.799C294.424 177.832 297.637 179.855 301.812 179.855C305.827 179.855 307.273 177.832 307.273 176.147C307.273 172.777 303.258 171.934 298.118 170.08C292.818 168.058 289.285 165.193 289.285 158.957C289.285 152.048 295.067 148.171 301.812 148.171C307.915 148.171 311.77 151.205 314.018 154.575L308.558 159.126C307.273 157.272 305.024 155.755 301.973 155.755C298.921 155.755 297.155 157.103 297.155 158.957C297.155 162.159 300.046 162.328 305.988 164.687C312.573 167.384 315.303 170.586 315.303 175.979C315.303 182.72 310.967 187.607 301.812 187.607C293.943 187.607 289.124 183.731 286.876 179.181L292.658 174.799Z" fill="#D7F75B"/>
<path d="M330.881 148.675H338.912V186.931H330.881V148.675Z" fill="#D7F75B"/>
<path d="M374.567 148C385.327 148 393.839 156.595 393.839 167.718C393.839 172.605 392.073 176.818 389.343 180.02L392.715 184.065L387.255 188.784L383.721 184.571C381.152 186.256 377.94 187.267 374.406 187.267C363.646 187.267 354.812 178.672 354.812 167.718C354.973 156.595 363.806 148 374.567 148ZM374.567 179.683C376.173 179.683 377.458 179.346 378.743 178.841L374.246 173.279L379.706 168.392L384.364 174.122C385.327 172.437 385.97 170.246 385.97 167.718C385.97 161.145 380.991 155.584 374.727 155.584C368.303 155.584 363.164 160.977 363.164 167.718C363.164 174.459 368.143 179.683 374.567 179.683Z" fill="#D7F75B"/>
<path d="M87.0842 186.593C90.8983 186.593 93.9902 183.273 93.9902 179.178C93.9902 175.083 90.8983 171.763 87.0842 171.763C83.2701 171.763 80.1782 175.083 80.1782 179.178C80.1782 183.273 83.2701 186.593 87.0842 186.593Z" fill="#D7F75B"/>
<path d="M100.737 166.369C103.575 166.369 105.876 163.88 105.876 160.808C105.876 157.737 103.575 155.247 100.737 155.247C97.8981 155.247 95.5972 157.737 95.5972 160.808C95.5972 163.88 97.8981 166.369 100.737 166.369Z" fill="#D7F75B"/>
<path d="M98.9689 159.123H69.8994V162.325H98.9689V159.123Z" fill="#D7F75B"/>
<path d="M53.9712 150.365V171.094H73.7256V150.365H53.9712Z" fill="#D7F75B"/>
</svg>
