<svg width="448" height="336" viewBox="0 0 448 336" fill="none" xmlns="http://www.w3.org/2000/svg">
<path d="M448 0H0V336H448V0Z" fill="#D52839"/>
<path d="M349.209 136.457V118.951H319.687V136.457H349.209Z" fill="#F6FAF2"/>
<path d="M319.685 136.455V118.949H349.21V136.455H319.685Z" fill="url(#paint0_linear)"/>
<path d="M313.594 157.726H296.064V127.702H313.594V157.726Z" fill="#F6FAF2"/>
<path d="M313.594 188.086C303.914 188.086 296.064 180.248 296.064 170.581V159.683H313.594V188.086Z" fill="#F6FAF2"/>
<path d="M313.594 188.086C303.914 188.086 296.064 180.248 296.064 170.581V159.683H313.594V188.086Z" fill="url(#paint1_linear)"/>
<path d="M146.346 214.284L146.319 196.817H134.298C114.687 196.814 98.79 212.689 98.79 232.273C98.79 251.855 114.687 267.73 134.295 267.73C153.904 267.73 169.8 251.855 169.8 232.273V159.683H152.27V232.232C152.27 242.157 144.212 250.204 134.273 250.204C124.334 250.204 116.276 242.157 116.276 232.232C116.276 222.306 124.362 214.284 134.301 214.284H146.346Z" fill="#F6FAF2"/>
<path d="M169.803 192.682H152.273V232.892H169.803V192.682Z" fill="url(#paint2_linear)"/>
<path d="M169.803 164.859H152.273V196.814H169.803V164.859Z" fill="url(#paint3_linear)"/>
<path d="M139.752 128.066C123.154 128.066 109.7 141.501 109.7 158.076C109.7 174.651 123.154 188.086 139.752 188.086C156.349 188.086 169.803 174.651 169.803 158.076C169.803 141.501 156.349 128.066 139.752 128.066ZM139.752 170.58C132.837 170.58 127.23 164.981 127.23 158.076C127.23 151.171 132.837 145.572 139.752 145.572C146.666 145.572 152.273 151.171 152.273 158.076C152.273 164.981 146.666 170.58 139.752 170.58Z" fill="#F6FAF2"/>
<path d="M162.307 177.905C166.974 172.617 169.803 165.676 169.803 158.073C169.803 141.498 156.35 128.063 139.752 128.063V145.569C146.667 145.569 152.273 151.168 152.273 158.073C152.273 161.094 151.199 163.867 149.413 166.026C149.157 166.334 148.887 166.632 148.606 166.915" fill="url(#paint4_linear)"/>
<path d="M185.633 130.159L185.536 130.059L148.642 166.901L161.038 179.28L185.633 154.717V130.159Z" fill="#F6FAF2"/>
<path d="M185.633 130.159L185.536 130.059L148.642 166.901L161.038 179.28L185.633 154.717V130.159Z" fill="url(#paint5_linear)"/>
<path d="M202.668 170.308C201.521 170.55 200.316 170.639 199.075 170.541C192.525 170.027 187.545 164.423 187.545 157.862V113.506C187.545 103.839 179.695 96 170.015 96V157.74C170.015 174.315 183.593 188.153 200.191 188.083C205.617 188.061 210.706 186.602 215.092 184.068C209.632 180.917 205.258 176.096 202.668 170.308Z" fill="#F6FAF2"/>
<path d="M202.668 170.308C201.827 170.486 200.956 170.58 200.066 170.58C193.151 170.58 187.545 164.981 187.545 158.076H170.015C170.015 174.651 183.468 188.086 200.066 188.086C205.539 188.086 210.67 186.625 215.092 184.071C209.632 180.917 205.258 176.096 202.668 170.308Z" fill="url(#paint6_linear)"/>
<path d="M232.294 166.918C227.405 171.8 219.474 171.8 214.585 166.918C209.697 162.036 209.697 154.117 214.585 149.235L202.189 136.855C190.453 148.576 190.453 167.577 202.189 179.297C213.926 191.018 232.953 191.018 244.69 179.297L232.294 166.918Z" fill="#F6FAF2"/>
<path d="M223.439 128.066C206.841 128.066 193.388 141.501 193.388 158.076C193.388 174.651 206.841 188.086 223.439 188.086C240.037 188.086 253.491 174.651 253.491 158.076C253.491 141.501 240.034 128.066 223.439 128.066ZM223.439 170.58C216.525 170.58 210.918 164.981 210.918 158.076C210.918 151.171 216.525 145.572 223.439 145.572C230.354 145.572 235.961 151.171 235.961 158.076C235.961 164.981 230.354 170.58 223.439 170.58Z" fill="#F6FAF2"/>
<path d="M245.995 177.905C250.661 172.617 253.491 165.676 253.491 158.073C253.491 141.498 240.037 128.063 223.439 128.063V145.569C230.354 145.569 235.961 151.168 235.961 158.073C235.961 161.094 234.887 163.867 233.1 166.026C232.844 166.334 232.575 166.632 232.293 166.915" fill="url(#paint7_linear)"/>
<path d="M283.543 128.066C266.945 128.066 253.491 141.501 253.491 158.076C253.491 174.651 266.945 188.086 283.543 188.086C300.14 188.086 313.594 174.651 313.594 158.076C313.594 141.501 300.138 128.066 283.543 128.066ZM283.543 170.58C276.628 170.58 271.021 164.981 271.021 158.076C271.021 151.171 276.628 145.572 283.543 145.572C290.457 145.572 296.064 151.171 296.064 158.076C296.064 164.981 290.457 170.58 283.543 170.58Z" fill="#F6FAF2"/>
<path d="M305.499 178.564C310.519 173.201 313.591 165.996 313.591 158.076C313.591 141.501 300.137 128.066 283.54 128.066V145.572C290.454 145.572 296.061 151.171 296.061 158.076C296.061 161.491 294.689 164.587 292.469 166.843L305.499 178.564Z" fill="url(#paint8_linear)"/>
<path d="M329.524 130.159L329.426 130.059L292.533 166.901L304.926 179.28L329.524 154.717V130.159Z" fill="#F6FAF2"/>
<path d="M329.524 130.159L329.426 130.059L292.533 166.901L304.926 179.28L329.524 154.717V130.159Z" fill="url(#paint9_linear)"/>
<path d="M283.543 170.58C276.628 170.58 271.021 164.981 271.021 158.076C271.021 153.975 273 150.334 276.055 148.053L261.691 137.475C256.608 142.849 253.491 150.098 253.491 158.076C253.491 174.651 266.945 188.086 283.543 188.086" fill="url(#paint10_linear)"/>
<path d="M244.195 179.811L231.798 167.432L263.633 135.641L269.83 141.832L276.03 148.02L244.195 179.811Z" fill="#F6FAF2"/>
<path d="M170.045 214.29H140.75V196.817H187.544C187.544 206.465 179.709 214.29 170.045 214.29Z" fill="#F6FAF2"/>
<path d="M336.689 158.076V113.506C336.689 103.839 328.84 96 319.159 96V158.849H319.168C319.579 175.065 332.872 188.086 349.208 188.086V170.58C342.293 170.58 336.689 164.981 336.689 158.076Z" fill="#F6FAF2"/>
<defs>
<linearGradient id="paint0_linear" x1="325.708" y1="127.809" x2="348.073" y2="127.536" gradientUnits="userSpaceOnUse">
<stop stop-color="#CDCCCC"/>
<stop offset="0.8025" stop-color="#F6FAF2" stop-opacity="0.5"/>
</linearGradient>
<linearGradient id="paint1_linear" x1="305.038" y1="167.187" x2="304.329" y2="189.885" gradientUnits="userSpaceOnUse">
<stop stop-color="#CDCCCC"/>
<stop offset="0.8025" stop-color="#F6FAF2" stop-opacity="0.5"/>
</linearGradient>
<linearGradient id="paint2_linear" x1="161.038" y1="192.268" x2="161.038" y2="219.049" gradientUnits="userSpaceOnUse">
<stop stop-color="#F6FAF2" stop-opacity="0.5"/>
<stop offset="0.5331" stop-color="#CDCCCC"/>
<stop offset="1" stop-color="#F6F9F1" stop-opacity="0.6045"/>
</linearGradient>
<linearGradient id="paint3_linear" x1="152.959" y1="170.273" x2="168.754" y2="190.985" gradientUnits="userSpaceOnUse">
<stop stop-color="#CDCCCC"/>
<stop offset="0.8025" stop-color="#F6FAF2" stop-opacity="0.5"/>
</linearGradient>
<linearGradient id="paint4_linear" x1="162.578" y1="162.248" x2="153.299" y2="149.472" gradientUnits="userSpaceOnUse">
<stop stop-color="#CDCCCC"/>
<stop offset="0.8025" stop-color="#F6FAF2" stop-opacity="0.5"/>
</linearGradient>
<linearGradient id="paint5_linear" x1="183.209" y1="153.621" x2="157.299" y2="156.368" gradientUnits="userSpaceOnUse">
<stop stop-color="#CDCCCC"/>
<stop offset="0.8025" stop-color="#F6FAF2" stop-opacity="0.5"/>
</linearGradient>
<linearGradient id="paint6_linear" x1="202.731" y1="166.451" x2="188.84" y2="172.871" gradientUnits="userSpaceOnUse">
<stop stop-color="#CDCCCC"/>
<stop offset="0.8025" stop-color="#F6FAF2" stop-opacity="0.5"/>
</linearGradient>
<linearGradient id="paint7_linear" x1="246.265" y1="162.248" x2="236.986" y2="149.472" gradientUnits="userSpaceOnUse">
<stop stop-color="#CDCCCC"/>
<stop offset="0.8025" stop-color="#F6FAF2" stop-opacity="0.5"/>
</linearGradient>
<linearGradient id="paint8_linear" x1="306.649" y1="162.026" x2="298.137" y2="150.976" gradientUnits="userSpaceOnUse">
<stop stop-color="#CDCCCC"/>
<stop offset="0.8025" stop-color="#F6FAF2" stop-opacity="0.5"/>
</linearGradient>
<linearGradient id="paint9_linear" x1="322.576" y1="154.67" x2="314.689" y2="154.67" gradientUnits="userSpaceOnUse">
<stop stop-color="#CDCCCC"/>
<stop offset="0.8025" stop-color="#F6FAF2" stop-opacity="0.5"/>
</linearGradient>
<linearGradient id="paint10_linear" x1="261.014" y1="153.815" x2="272.456" y2="167.85" gradientUnits="userSpaceOnUse">
<stop stop-color="#CDCCCC"/>
<stop offset="0.8025" stop-color="#F6FAF2" stop-opacity="0.5"/>
</linearGradient>
</defs>
</svg>
