<svg width="448" height="336" viewBox="0 0 448 336" fill="none" xmlns="http://www.w3.org/2000/svg">
<rect width="448" height="336" fill="#F9E662"/>
<g clip-path="url(#clip0_1_234)">
<path d="M99.3067 154.092H93.4124V182.655H99.3067V154.092Z" fill="black"/>
<path d="M105.126 154.093H111.02V158.252C111.507 157.356 112.142 156.552 112.897 155.874C114.647 154.302 116.919 153.453 119.261 153.496C121.71 153.459 124.092 154.302 125.981 155.874C126.797 156.563 127.514 157.363 128.112 158.252C128.691 157.334 129.429 156.529 130.29 155.874C132.466 154.272 135.105 153.436 137.798 153.496C143.43 153.496 148.123 158.233 148.123 165.688V182.646H142.228V165.688C142.228 161.463 139.638 159.142 136.334 159.142C132.505 159.142 129.557 162.126 129.557 166.882V182.646H123.729V165.688C123.729 161.463 121.129 159.142 117.825 159.142C113.996 159.142 111.048 162.126 111.048 166.882V182.646H105.154L105.126 154.093Z" fill="black"/>
<path d="M170.443 178.487C169.823 179.393 169.066 180.196 168.199 180.865C166.227 182.406 163.804 183.242 161.31 183.243C155.679 183.243 151.868 179.378 151.868 174.916C151.868 170.179 155.115 166.882 160.128 165.991L170.452 164.201C170.452 161.169 168.096 158.848 164.558 158.848C162.608 158.912 160.728 159.599 159.189 160.809C158.444 161.351 157.772 161.988 157.19 162.704L153.36 158.839C154.151 157.799 155.101 156.894 156.176 156.158C158.611 154.384 161.546 153.448 164.548 153.486C171.625 153.486 176.337 158.223 176.337 164.495V182.646H170.443V178.487ZM170.443 168.966L162.211 170.454C159.198 170.984 157.79 172.471 157.79 174.319C157.79 176.403 159.499 178.184 162.483 178.184C163.552 178.181 164.61 177.961 165.593 177.538C166.577 177.114 167.466 176.496 168.208 175.719C168.95 174.943 169.53 174.024 169.914 173.017C170.298 172.01 170.478 170.935 170.443 169.857V168.966Z" fill="black"/>
<path d="M185.254 185.327C185.887 186.095 186.598 186.793 187.375 187.411C189.018 188.777 191.085 189.515 193.213 189.496C198.582 189.496 202.054 185.981 202.054 180.268V177.597C201.434 178.464 200.68 179.226 199.82 179.851C197.811 181.307 195.395 182.08 192.922 182.059C186.145 182.059 180.241 176.109 180.241 167.772C180.241 159.436 186.145 153.496 192.922 153.496C195.4 153.493 197.815 154.282 199.82 155.75C200.663 156.378 201.415 157.121 202.054 157.958V154.093H207.958V180.268C207.958 188.899 201.763 195.151 193.213 195.151C189.968 195.158 186.807 194.116 184.193 192.177C183.051 191.321 182.023 190.322 181.133 189.202L185.254 185.327ZM202.054 167.772C202.054 162.714 198.525 159.142 194.095 159.142C189.665 159.142 186.145 162.714 186.145 167.772C186.145 172.831 189.674 176.403 194.095 176.403C198.516 176.403 202.054 172.831 202.054 167.772V167.772Z" fill="black"/>
<path d="M238.791 177.909C237.964 178.963 236.968 179.87 235.844 180.59C233.133 182.392 229.946 183.323 226.702 183.262C222.794 183.301 219.03 181.771 216.239 179.009C213.449 176.248 211.859 172.48 211.821 168.535C211.782 164.59 213.297 160.792 216.034 157.975C218.77 155.158 222.503 153.554 226.411 153.515C228.246 153.453 230.074 153.772 231.782 154.452C233.49 155.132 235.041 156.159 236.34 157.469C237.639 158.779 238.657 160.344 239.332 162.068C240.007 163.791 240.325 165.636 240.265 167.488C240.248 168.205 240.189 168.92 240.086 169.629L239.974 170.463H218.151C218.542 172.523 219.648 174.374 221.27 175.684C222.893 176.993 224.926 177.675 227.002 177.606C229.146 177.587 231.236 176.928 233.009 175.712C233.849 175.17 234.605 174.506 235.252 173.741L238.791 177.909ZM234.098 165.414C233.216 161.548 230.625 158.867 226.439 158.867C221.953 158.867 219.362 161.548 218.179 165.414H234.098Z" fill="black"/>
<path d="M244.385 154.092V182.646H250.27V154.092H244.385Z" fill="black"/>
<path d="M290.489 177.909C289.662 178.963 288.666 179.87 287.542 180.59C284.831 182.392 281.644 183.323 278.4 183.262C274.491 183.301 270.728 181.771 267.937 179.009C265.146 176.248 263.557 172.48 263.518 168.535C263.48 164.59 264.995 160.792 267.731 157.975C270.468 155.158 274.2 153.554 278.109 153.515C279.944 153.453 281.772 153.772 283.48 154.452C285.188 155.132 286.739 156.159 288.038 157.469C289.337 158.779 290.355 160.344 291.03 162.068C291.705 163.791 292.022 165.636 291.962 167.488C291.946 168.205 291.886 168.92 291.784 169.629L291.662 170.463H269.849C270.237 172.524 271.343 174.376 272.966 175.686C274.589 176.996 276.623 177.677 278.7 177.606C280.843 177.585 282.933 176.926 284.707 175.712C285.547 175.17 286.303 174.506 286.95 173.741L290.489 177.909ZM285.796 165.414C284.913 161.548 282.323 158.867 278.137 158.867C273.65 158.867 271.06 161.548 269.877 165.414H285.796Z" fill="black"/>
<path d="M296.186 140.962H302.062V182.646H296.167L296.186 140.962Z" fill="black"/>
<path d="M324.588 178.487C323.969 179.391 323.215 180.193 322.354 180.865C320.377 182.405 317.952 183.241 315.455 183.243C309.824 183.243 306.069 179.378 306.069 174.916C306.069 170.179 309.307 166.882 314.32 165.992L324.644 164.201C324.644 161.169 322.288 158.848 318.75 158.848C316.774 158.91 314.871 159.614 313.325 160.857C312.574 161.395 311.899 162.032 311.316 162.752L307.487 158.886C308.277 157.846 309.228 156.941 310.302 156.205C312.737 154.432 315.672 153.495 318.675 153.534C325.752 153.534 330.463 158.271 330.463 164.542V182.646H324.588V178.487ZM324.588 168.966L316.338 170.454C313.334 170.984 311.917 172.472 311.917 174.319C311.917 176.403 313.625 178.184 316.61 178.184C317.68 178.183 318.74 177.966 319.725 177.543C320.711 177.121 321.602 176.503 322.347 175.726C323.091 174.95 323.673 174.03 324.058 173.021C324.443 172.013 324.623 170.937 324.588 169.857V168.966Z" fill="black"/>
<path d="M339.887 185.327C340.521 186.097 341.235 186.796 342.017 187.411C343.656 188.778 345.72 189.516 347.846 189.495C352.858 189.495 356.106 186.284 356.106 180.865V177.293C355.465 178.185 354.711 178.988 353.862 179.681C352.012 181.219 349.689 182.06 347.292 182.059C340.807 182.059 336.085 177.322 336.085 169.563V154.092H341.98V169.563C341.98 173.788 344.636 176.403 348.465 176.403C352.886 176.403 356.134 173.134 356.134 168.369V154.092H362.028V180.865C362.028 189.202 356.134 195.151 347.874 195.151C344.63 195.158 341.469 194.116 338.854 192.176C337.712 191.321 336.684 190.322 335.794 189.202L339.887 185.327Z" fill="black"/>
<path d="M257.557 165.403L263.159 159.749L257.557 154.095L251.956 159.749L257.557 165.403Z" fill="black"/>
<path d="M85.4906 154.092H93.4124V146.097H85.4906V154.092Z" fill="black"/>
</g>
<defs>
<clipPath id="clip0_1_234">
<rect width="276.5" height="54.1513" fill="white" transform="translate(85.5 141)"/>
</clipPath>
</defs>
</svg>
