<svg width="448" height="336" viewBox="0 0 448 336" fill="none" xmlns="http://www.w3.org/2000/svg">
<path d="M448 0H0V336H448V0Z" fill="white"/>
<path d="M199.678 154.772C199.015 154.108 198.685 153.301 198.685 152.343C198.685 151.389 199.015 150.578 199.678 149.914C200.342 149.251 201.149 148.921 202.107 148.921C203.027 148.921 203.81 149.251 204.454 149.914C205.099 150.578 205.421 151.389 205.421 152.343C205.421 153.301 205.099 154.108 204.454 154.772C203.81 155.435 203.027 155.765 202.107 155.765C201.149 155.765 200.342 155.431 199.678 154.772ZM204.536 158.865V189.097H199.515V158.865H204.536Z" fill="black"/>
<path d="M230.527 160.068C232.494 161.209 233.957 162.644 234.915 164.371V158.857H239.994V189.761C239.994 192.519 239.404 194.975 238.229 197.129C237.049 199.282 235.369 200.966 233.181 202.18C230.993 203.395 228.444 204 225.538 204C221.565 204 218.255 203.061 215.605 201.183C212.955 199.309 211.392 196.748 210.914 193.513H215.881C216.432 195.352 217.572 196.83 219.303 197.955C221.033 199.076 223.109 199.639 225.538 199.639C228.296 199.639 230.55 198.774 232.296 197.043C234.042 195.313 234.919 192.884 234.919 189.761V183.413C233.926 185.179 232.455 186.649 230.504 187.829C228.552 189.008 226.271 189.594 223.66 189.594C220.975 189.594 218.538 188.93 216.346 187.607C214.158 186.284 212.435 184.426 211.186 182.032C209.933 179.642 209.308 176.918 209.308 173.865C209.308 170.773 209.933 168.061 211.186 165.725C212.435 163.389 214.158 161.577 216.346 160.289C218.534 159.001 220.971 158.357 223.66 158.357C226.267 158.357 228.56 158.931 230.527 160.068ZM233.534 167.96C232.615 166.268 231.373 164.972 229.809 164.068C228.246 163.168 226.527 162.718 224.649 162.718C222.771 162.718 221.06 163.16 219.516 164.041C217.972 164.926 216.738 166.214 215.819 167.905C214.899 169.597 214.437 171.583 214.437 173.865C214.437 176.181 214.895 178.199 215.819 179.906C216.738 181.617 217.972 182.924 219.516 183.825C221.06 184.725 222.771 185.175 224.649 185.175C226.523 185.175 228.246 184.725 229.809 183.825C231.373 182.924 232.615 181.617 233.534 179.906C234.454 178.195 234.911 176.201 234.911 173.919C234.915 171.642 234.454 169.655 233.534 167.96Z" fill="black"/>
<path d="M266.354 159.765C268.193 160.739 269.636 162.202 270.688 164.153C271.735 166.105 272.259 168.476 272.259 171.273V189.097H267.293V171.991C267.293 168.976 266.54 166.667 265.031 165.065C263.522 163.467 261.462 162.663 258.85 162.663C256.2 162.663 254.094 163.49 252.534 165.147C250.97 166.803 250.187 169.213 250.187 172.375V189.097H245.166V148.921H250.187V163.16C251.18 161.616 252.549 160.421 254.299 159.571C256.045 158.725 258.005 158.302 260.177 158.302C262.451 158.302 264.515 158.791 266.354 159.765Z" fill="black"/>
<path d="M283.817 162.993V180.817C283.817 182.288 284.128 183.328 284.756 183.937C285.381 184.542 286.467 184.849 288.011 184.849H291.709V189.097H287.185C284.388 189.097 282.292 188.453 280.896 187.165C279.499 185.877 278.801 183.762 278.801 180.817V162.993H274.882V158.857H278.801V148.921H283.821V158.857H291.713V162.997L283.817 162.993Z" fill="black"/>
<path d="M296.897 154.772C296.233 154.108 295.903 153.301 295.903 152.343C295.903 151.389 296.233 150.578 296.897 149.914C297.56 149.251 298.367 148.921 299.325 148.921C300.245 148.921 301.029 149.251 301.673 149.914C302.317 150.578 302.639 151.389 302.639 152.343C302.639 153.301 302.317 154.108 301.673 154.772C301.029 155.435 300.245 155.765 299.325 155.765C298.367 155.765 297.56 155.431 296.897 154.772ZM301.754 158.865V189.097H296.734V158.865H301.754Z" fill="black"/>
<path d="M307.938 165.725C309.188 163.389 310.926 161.577 313.153 160.289C315.38 159.001 317.925 158.357 320.796 158.357C324.513 158.357 327.574 159.257 329.984 161.061C332.393 162.865 333.984 165.364 334.756 168.565H329.348C328.832 166.726 327.831 165.271 326.341 164.204C324.851 163.137 323 162.605 320.796 162.605C317.925 162.605 315.609 163.591 313.844 165.558C312.078 167.525 311.194 170.315 311.194 173.919C311.194 177.562 312.078 180.375 313.844 182.362C315.609 184.348 317.929 185.342 320.796 185.342C323.004 185.342 324.843 184.826 326.314 183.797C327.784 182.769 328.797 181.295 329.348 179.382H334.756C333.945 182.47 332.327 184.946 329.899 186.804C327.47 188.663 324.436 189.59 320.792 189.59C317.921 189.59 315.376 188.946 313.149 187.658C310.922 186.37 309.184 184.55 307.935 182.195C306.681 179.84 306.057 177.081 306.057 173.915C306.061 170.796 306.685 168.061 307.938 165.725Z" fill="black"/>
<path d="M345.659 187.634C343.358 186.346 341.558 184.515 340.25 182.14C338.943 179.766 338.291 177.019 338.291 173.892C338.291 170.803 338.962 168.068 340.305 165.697C341.647 163.323 343.478 161.503 345.795 160.235C348.111 158.966 350.707 158.33 353.574 158.33C356.441 158.33 359.037 158.966 361.353 160.235C363.669 161.503 365.501 163.319 366.843 165.67C368.186 168.025 368.857 170.765 368.857 173.892C368.857 177.019 368.166 179.77 366.789 182.14C365.408 184.515 363.541 186.342 361.186 187.634C358.831 188.922 356.22 189.567 353.349 189.567C350.524 189.567 347.956 188.922 345.659 187.634ZM358.431 183.883C360.014 183.037 361.291 181.768 362.265 180.076C363.239 178.385 363.728 176.325 363.728 173.896C363.728 171.467 363.25 169.407 362.292 167.715C361.334 166.023 360.084 164.762 358.54 163.936C356.996 163.11 355.32 162.694 353.52 162.694C351.681 162.694 349.997 163.11 348.468 163.936C346.939 164.762 345.717 166.023 344.798 167.715C343.878 169.407 343.416 171.467 343.416 173.896C343.416 176.363 343.866 178.439 344.767 180.135C345.667 181.826 346.873 183.087 348.383 183.914C349.892 184.744 351.545 185.155 353.349 185.155C355.157 185.151 356.849 184.728 358.431 183.883Z" fill="black"/>
<path d="M181.873 148.921V185.035H195.271V189.097H176.876V148.921H181.873Z" fill="black"/>
<path d="M77.1436 168.134L85.171 156.657L97.9863 169.034C97.9863 169.034 117.657 133.277 157.368 131.035C157.368 131.035 120.307 142.558 100.566 190.308L77.1436 168.134Z" fill="url(#paint0_linear)"/>
<path opacity="0.7" d="M106.173 190.312C111.062 179.84 116.711 170.024 123.632 160.673C127.353 155.645 131.9 151.431 136.77 147.532C146.434 139.792 158.373 131.989 175.25 131.039C175.25 131.039 138.19 142.562 118.449 190.312H106.173Z" fill="url(#paint1_linear)"/>
<path opacity="0.5" d="M124.059 190.312C128.948 179.84 134.597 170.024 141.519 160.673C145.239 155.645 149.787 151.431 154.656 147.532C164.317 139.792 176.255 131.989 193.133 131.039C193.133 131.039 156.072 142.562 136.331 190.312H124.059Z" fill="url(#paint2_linear)"/>
<defs>
<linearGradient id="paint0_linear" x1="161.015" y1="155.83" x2="77.1471" y2="168.155" gradientUnits="userSpaceOnUse">
<stop stop-color="#4BD2FD"/>
<stop offset="0.1905" stop-color="#41C5FC"/>
<stop offset="0.544" stop-color="#28A2F8"/>
<stop offset="1" stop-color="#006DF3"/>
</linearGradient>
<linearGradient id="paint1_linear" x1="146.826" y1="126.027" x2="134.605" y2="195.327" gradientUnits="userSpaceOnUse">
<stop stop-color="#4BD2FD"/>
<stop offset="0.1171" stop-color="#41C5FC"/>
<stop offset="0.3346" stop-color="#28A2F8"/>
<stop offset="0.6151" stop-color="#006DF3"/>
<stop offset="1" stop-color="#006DF3" stop-opacity="0"/>
</linearGradient>
<linearGradient id="paint2_linear" x1="164.709" y1="126.027" x2="152.488" y2="195.328" gradientUnits="userSpaceOnUse">
<stop stop-color="#4BD2FD"/>
<stop offset="0.1171" stop-color="#41C5FC"/>
<stop offset="0.3346" stop-color="#28A2F8"/>
<stop offset="0.6151" stop-color="#006DF3"/>
<stop offset="1" stop-color="#006DF3" stop-opacity="0"/>
</linearGradient>
</defs>
</svg>
