<svg width="448" height="336" viewBox="0 0 448 336" fill="none" xmlns="http://www.w3.org/2000/svg">
<path d="M448 0H0V336H448V0Z" fill="black"/>
<path d="M294.798 175.893H300.789V200.265C293.165 207.433 282.272 211.017 270.654 211.017C245.239 211.017 226.723 192.738 226.723 168.008C226.723 143.279 245.421 125 270.836 125C282.998 125 293.709 128.942 301.152 136.648L297.34 140.77C290.078 133.602 281.183 130.555 271.199 130.555C249.415 130.555 233.076 146.504 233.076 167.829C233.076 188.975 249.233 205.103 271.199 205.103C279.912 205.103 288.263 202.953 294.98 197.398" fill="#F8F8F8"/>
<path d="M310.048 168.008C310.048 143.458 328.927 125 354.523 125C379.94 125 399 143.279 399 168.008C399 192.738 380.121 211.017 354.523 211.017C328.927 211.017 310.048 192.559 310.048 168.008ZM392.646 168.008C392.646 146.504 376.309 130.734 354.342 130.734C332.377 130.734 316.22 146.504 316.22 168.008C316.22 189.513 332.558 205.283 354.523 205.283C376.309 205.283 392.646 189.513 392.646 168.008Z" fill="#F8F8F8"/>
<path d="M133.777 198.114V208.866H171.718C180.976 208.329 189.69 207.791 196.77 204.207C203.849 200.623 209.296 195.964 213.108 189.692C216.92 183.599 218.917 176.252 218.917 167.829C218.917 159.407 216.92 152.059 212.926 145.967C208.932 139.695 203.668 135.035 196.588 131.451C189.508 128.046 181.158 126.254 171.899 126.254H132.143L97.2884 178.223L61.889 126.434H49V209.404H63.1598V150.805L93.6576 194.889H100.011L137.952 138.082H170.992C180.613 138.082 192.231 140.77 198.04 146.146C204.031 151.522 206.936 159.048 206.936 168.188C206.936 177.327 203.849 184.674 198.04 190.229C192.05 195.606 180.795 198.294 170.992 198.294H146.121H133.777V198.114Z" fill="#4DD8D3"/>
</svg>
