<svg width="448" height="336" viewBox="0 0 448 336" fill="none" xmlns="http://www.w3.org/2000/svg">
<path d="M448 0H0V336H448V0Z" fill="#FFDF5A"/>
<path d="M381.548 150.851C372.18 150.851 365.317 157.4 364.172 165.682H345.055C343.931 157.33 337.149 150.851 327.77 150.851C318.402 150.851 311.539 157.4 310.393 165.682H279.5C279.178 165.671 278.857 165.666 278.531 165.66C277.396 165.655 276.304 166.302 275.924 167.372C275.201 169.416 276.55 171.353 278.311 171.353C278.343 171.353 278.37 171.353 278.402 171.353H285.051C283.825 176.864 279.719 180.898 274.195 180.898C267.573 180.898 262.851 174.996 262.851 167.897C262.851 160.69 267.471 154.896 274.098 154.896C278.199 154.896 281.528 157.138 283.498 160.546L283.654 160.781C284.259 161.867 285.27 162.284 286.598 162.14C287.674 162.022 288.611 161.257 288.921 160.219C289.435 158.534 288.862 157.544 288.022 156.346C284.971 151.916 280.137 149 274.195 149C264.698 149 257.782 156.405 256.823 165.682H238.403C237.279 157.33 230.496 150.851 221.117 150.851C210.839 150.851 203.569 158.737 203.569 168.148C203.569 177.655 210.743 185.445 221.021 185.445C230.105 185.445 236.834 179.287 238.274 171.358H256.973C258.365 180.111 265.008 186.804 274.093 186.804C283.161 186.804 289.863 180.042 291.287 171.358H310.506C311.919 179.346 318.578 185.445 327.673 185.445C336.758 185.445 343.487 179.287 344.927 171.358H364.284C365.697 179.346 372.357 185.445 381.452 185.445C391.73 185.445 399 177.559 399 168.148C399 158.636 391.827 150.851 381.548 150.851ZM221.123 180.047C214.479 180.047 209.747 174.649 209.747 168.148C209.747 161.557 214.383 156.249 221.032 156.249C227.675 156.249 232.407 161.648 232.407 168.148C232.407 174.74 227.771 180.047 221.123 180.047ZM327.77 180.047C321.126 180.047 316.394 174.649 316.394 168.148C316.394 161.557 321.03 156.249 327.679 156.249C334.327 156.249 339.054 161.648 339.054 168.148C339.054 174.74 334.418 180.047 327.77 180.047ZM381.548 180.047C374.905 180.047 370.173 174.649 370.173 168.148C370.173 161.557 374.809 156.249 381.457 156.249C388.101 156.249 392.833 161.648 392.833 168.148C392.833 174.74 388.197 180.047 381.548 180.047Z" fill="black"/>
<path d="M76.612 149.749C75.0917 149.845 73.9836 151.247 73.9836 152.766V174.092L57.5598 151.578C56.7622 150.535 55.9646 149.786 54.5567 149.786H51.9068C50.2687 149.791 49 151.182 49 152.873V182.042C49 183.685 50.2687 185.022 51.864 185.022C53.4111 185.022 54.6798 183.679 54.6798 182.042V159.978L71.5746 183.139C72.3723 184.23 73.2181 184.979 74.5778 184.979H76.703C78.3358 184.979 79.6634 183.652 79.6634 182.021V152.723C79.6634 151.022 78.2983 149.642 76.612 149.749Z" fill="black"/>
<path d="M182.418 149.792H179.977C178.805 149.792 177.959 150.332 177.349 151.37L167.354 167.795L157.403 151.418C156.841 150.482 155.995 149.792 154.726 149.792H154.116C152.472 149.792 151.209 151.172 151.209 152.852V181.759C151.209 183.214 152.381 184.664 153.837 184.755C155.518 184.862 156.889 183.546 156.889 181.802V161.343L165.588 174.381C166.252 175.403 167.071 176.018 168.195 176.018C169.373 176.018 170.192 175.403 170.855 174.381L179.603 161.241V181.748C179.603 183.284 180.743 184.686 182.279 184.755C183.96 184.835 185.277 183.477 185.277 181.748V152.852C185.277 151.172 184.03 149.792 182.418 149.792Z" fill="black"/>
<path d="M118.785 152.307C118.078 150.744 116.868 149.792 115.107 149.792H114.802C113.041 149.792 111.777 150.75 111.076 152.307L97.9767 181.513C97.7251 182.016 97.5752 182.471 97.5752 182.92C97.5752 184.531 98.8332 185.788 100.445 185.788C101.756 185.788 102.811 185.082 103.314 183.824L106.285 177.024H123.415L126.285 183.621C126.841 184.932 127.848 185.788 129.309 185.788C130.974 185.788 132.232 184.477 132.232 182.818C132.232 182.417 132.13 181.962 131.879 181.508L118.785 152.307ZM108.785 171.358L114.855 157.4L120.926 171.358H108.785Z" fill="black"/>
</svg>
