<svg width="448" height="336" viewBox="0 0 448 336" fill="none" xmlns="http://www.w3.org/2000/svg">
<path d="M448 0H0V336H448V0Z" fill="white"/>
<path d="M85.6416 142.416C92.8429 142.416 98.8053 144.814 103.498 149.61C108.19 154.407 110.544 161.047 110.544 169.502V209.671H93.5553V171.593C93.5553 167.227 92.3628 163.891 89.9934 161.585C87.6239 159.28 84.4491 158.111 80.5 158.111C76.1018 158.111 72.5863 159.464 69.9535 162.17C67.3208 164.875 66.0044 168.934 66.0044 174.345V209.671H49V144.245H66.0044V151.578C70.1394 145.475 76.6903 142.416 85.6416 142.416Z" fill="#333333"/>
<path d="M136.795 183.891C139.071 192.1 145.281 196.189 155.379 196.189C161.883 196.189 166.808 194.006 170.138 189.64L183.843 197.496C177.339 206.827 167.768 211.5 155.1 211.5C144.197 211.5 135.463 208.226 128.865 201.692C122.268 195.159 118.985 186.904 118.985 176.958C118.985 167.104 122.237 158.88 128.742 152.285C135.246 145.706 143.593 142.401 153.784 142.401C163.447 142.401 171.423 145.721 177.711 152.347C183.998 158.972 187.142 167.181 187.142 176.943C187.142 179.126 186.925 181.432 186.476 183.876H136.795V183.891ZM136.531 170.809H170.153C169.193 166.367 167.195 163.046 164.16 160.863C161.124 158.68 157.671 157.589 153.815 157.589C149.246 157.589 145.467 158.742 142.478 161.063C139.474 163.369 137.507 166.628 136.531 170.809Z" fill="#333333"/>
<path d="M253.471 209.671H233.834L219.525 189.84L205.215 209.671H185.578L209.737 176.266L186.631 144.246H206.268L219.571 162.677L232.905 144.246H252.418L229.343 176.236L253.471 209.671Z" fill="#333333"/>
<path d="M259.263 209.671V184.721H276.268V209.671H259.263Z" fill="#333333"/>
<path d="M326.894 160.478H311.996V187.703C311.996 189.978 312.569 191.623 313.715 192.684C314.861 193.729 316.518 194.313 318.717 194.452C320.916 194.575 323.642 194.559 326.894 194.39V209.701C315.201 211.008 306.963 209.916 302.177 206.427C297.392 202.937 294.991 196.696 294.991 187.718V160.478H283.516V144.245H294.991V129.38L311.996 124.276V144.23H326.894V160.478Z" fill="#333333"/>
<path d="M348.637 183.891C350.914 192.1 357.124 196.189 367.221 196.189C373.726 196.189 378.651 194.006 381.98 189.64L395.686 197.496C389.182 206.827 379.611 211.5 366.943 211.5C356.04 211.5 347.306 208.226 340.708 201.692C334.111 195.159 330.828 186.904 330.828 176.958C330.828 167.104 334.08 158.88 340.584 152.285C347.089 145.706 355.436 142.401 365.626 142.401C375.29 142.401 383.266 145.721 389.553 152.347C395.841 158.972 398.985 167.181 398.985 176.943C398.985 179.126 398.768 181.432 398.319 183.876H348.637V183.891ZM348.374 170.809H381.996C381.036 166.367 379.038 163.046 376.002 160.863C372.967 158.68 369.514 157.589 365.657 157.589C361.089 157.589 357.31 158.742 354.321 161.063C351.317 163.369 349.35 166.628 348.374 170.809Z" fill="#333333"/>
<path d="M272.535 165.029H262.995L258.226 173.238L262.995 181.447H272.535L277.321 173.238L272.535 165.029Z" fill="#333333"/>
<path d="M267.44 161.739C272.461 161.739 276.531 157.699 276.531 152.715C276.531 147.731 272.461 143.691 267.44 143.691C262.42 143.691 258.35 147.731 258.35 152.715C258.35 157.699 262.42 161.739 267.44 161.739Z" fill="#333333"/>
<path d="M276.035 124H259.496V140.418H276.035V124Z" fill="#333333"/>
</svg>
