<svg width="448" height="336" viewBox="0 0 448 336" fill="none" xmlns="http://www.w3.org/2000/svg">
<path d="M448 0H0V336H448V0Z" fill="black"/>
<path d="M160.176 170.064C160.261 170.064 133.294 154.471 133.214 154.012C132.604 150.698 131.836 145.225 128.116 142.394C124.914 139.979 103.301 130.011 103.258 129.907C99.279 123.876 95.7523 117.556 92.708 111C89.8169 113.182 87.4654 116.002 85.8357 119.241C84.2061 122.481 83.3418 126.053 83.3103 129.681C72.693 131.207 62.7283 135.731 54.5801 142.724C75.7115 137.869 81.7979 142.345 81.7979 142.345C74.8794 143.581 68.213 145.957 62.0691 149.377C53.0616 154.343 49 160.305 49 160.305C49 160.305 69.4544 154.44 85.1519 160.146C77.8318 161.181 71.0273 164.517 65.716 169.673C98.2515 173.715 114.297 202.027 121.048 224.903C123.53 184.214 103.326 168.761 103.326 168.761C109.192 169.184 116.571 173.757 121.292 180.563C135.684 178.937 143.698 183.358 143.631 183.358C143.472 183.358 151.412 180.912 157.011 178.325C156.529 177.598 154.504 175.072 153.352 173.66C153.51 173.672 157.938 173.409 160.176 170.064ZM115.236 152.056C115.553 151.976 122.603 149.989 124.615 150.753C126.445 151.444 126.482 156.666 126.482 156.666C126.482 156.666 122.304 157.253 115.236 152.056Z" fill="white"/>
<path d="M196.846 154.947C189.869 154.947 182.819 159.839 182.819 169.127C182.819 178.416 189.857 183.253 196.809 183.253C203.762 183.253 210.799 178.404 210.799 169.127C210.799 159.851 203.774 154.947 196.846 154.947ZM196.797 177.731C192.955 177.731 189.064 174.796 189.064 169.17C189.064 163.453 192.979 160.462 196.846 160.462C201.371 160.462 204.53 164.003 204.53 169.072C204.53 174.759 200.639 177.731 196.797 177.731Z" fill="white"/>
<path d="M347.993 154.947C341.015 154.947 333.965 159.839 333.965 169.127C333.965 178.416 341.004 183.253 347.956 183.253C354.908 183.253 361.94 178.404 361.94 169.127C361.94 159.851 354.921 154.947 347.993 154.947ZM347.943 177.731C344.095 177.731 340.21 174.796 340.21 169.17C340.21 163.453 344.126 160.462 347.993 160.462C352.512 160.462 355.671 164.003 355.671 169.072C355.671 174.759 351.786 177.731 347.943 177.731Z" fill="white"/>
<path d="M226.855 183.156H225.343L225.239 182.948L211.804 155.657H218.811L226.172 172.314L233.539 155.657H240.388L226.855 183.156Z" fill="white"/>
<path d="M255.098 183.253C246.75 183.253 241.358 177.688 241.358 169.079C241.358 160.891 247.03 154.947 254.842 154.947C262.654 154.947 267.582 160.45 267.582 169.011C267.582 169.231 267.582 169.47 267.582 169.714C267.582 169.959 267.582 170.21 267.582 170.466V170.84H247.664C248.274 175.34 250.957 177.713 255.501 177.713C256.869 177.734 258.225 177.469 259.485 176.935C260.745 176.401 261.881 175.61 262.819 174.613L263.106 174.325L266.478 178.404L266.259 178.648C263.417 181.797 259.861 183.253 255.098 183.253ZM247.78 166.29H261.264C260.703 162.425 258.355 160.218 254.781 160.218C251.207 160.218 248.597 162.584 247.78 166.29Z" fill="white"/>
<path d="M321.579 183.156H320.024L313.217 166.652L306.411 183.156H304.801L293.842 155.657H300.514L306.033 170.951L312.462 155.504H314.065L320.639 170.951L326.013 155.657H332.641L321.579 183.156Z" fill="white"/>
<path d="M288.903 155.7H288.64C286.759 155.645 284.896 156.079 283.233 156.961C281.568 157.843 280.16 159.143 279.147 160.733L279.018 155.651H273.127V182.6H279.226V169.82C279.226 167.184 280.586 165.056 283.056 163.601C285.342 162.255 288.507 161.638 290.598 162.158C290.117 160.219 288.903 155.7 288.903 155.7Z" fill="white"/>
<path d="M388.31 182.6H382.211V161.021H376.795L378.193 155.652H382.211V154.172C382.211 147.874 385.809 144.113 391.847 144.113C394.303 144.071 396.71 144.815 398.72 146.235L399 146.437L396.292 151.047L395.95 150.766C394.92 149.871 393.599 149.385 392.236 149.402C389.742 149.402 388.31 151.053 388.31 153.94V155.67H397.114V161.039H388.31V182.6Z" fill="white"/>
<path d="M372.845 182.6H366.746V144.767H372.845V182.6Z" fill="white"/>
</svg>
