<svg width="448" height="336" viewBox="0 0 448 336" fill="none" xmlns="http://www.w3.org/2000/svg">
<path d="M448 0H0V336H448V0Z" fill="white"/>
<path d="M79.587 129C62.7028 129 49 142.695 49 159.57C49 176.445 62.7028 190.141 79.587 190.141C96.4711 190.141 110.174 176.445 110.174 159.57C110.174 142.695 96.4711 129 79.587 129ZM79.4279 182.623C66.6568 182.623 56.2945 172.266 56.2945 159.502C56.2945 146.738 66.6341 136.381 79.4279 136.381C92.2217 136.381 102.561 146.738 102.561 159.502C102.561 172.266 92.199 182.623 79.4279 182.623Z" fill="#26CAD3"/>
<path d="M162.508 131.158C176.665 131.158 181.642 138.403 181.642 149.668C181.642 160.933 176.575 168.178 162.508 168.178H148.192V187.915H139.011V141.128C139.011 134.156 141.988 131.18 148.964 131.18H162.508V131.158ZM151.601 139.811C149.237 139.811 148.192 140.765 148.192 143.127V159.548H162.508C170.28 159.548 172.461 156.323 172.461 149.691C172.461 143.15 170.189 139.834 162.508 139.834H151.601V139.811Z" fill="#2D3047"/>
<path d="M220.591 174.901C220.591 184.508 214.91 188.868 201.98 188.868C190.618 188.868 184.255 184.689 184.255 175.423C184.255 165.657 191.163 162.25 202.071 162.25H211.683V157.98C211.683 152.575 207.57 151.348 201.366 151.348C196.208 151.348 191.754 151.961 188.959 153.006V145.125C192.095 144.08 196.117 143.649 200.844 143.649C212.638 143.649 220.591 147.056 220.591 157.957V174.901ZM211.683 169.041H202.071C196.14 169.041 193.254 170.79 193.254 175.241C193.254 180.397 197.367 181.26 201.821 181.26C207.502 181.26 211.683 180.397 211.683 174.446V169.041Z" fill="#2D3047"/>
<path d="M238.135 187.914H229.136V160.592C229.136 149.849 235.067 143.649 248.179 143.649C261.813 143.649 267.131 149.668 267.131 160.592V187.914H258.132V160.592C258.132 155.096 256.473 152.03 248.179 152.03C239.975 152.03 238.135 155.096 238.135 160.592V187.914Z" fill="#2D3047"/>
<path d="M310.807 174.901C310.807 184.508 305.126 188.868 292.196 188.868C280.834 188.868 274.471 184.689 274.471 175.423C274.471 165.657 281.379 162.25 292.287 162.25H301.899V157.98C301.899 152.575 297.786 151.348 291.582 151.348C286.424 151.348 281.97 151.961 279.175 153.006V145.125C282.311 144.08 286.333 143.649 291.059 143.649C302.853 143.649 310.807 147.056 310.807 157.957V174.901ZM301.899 169.041H292.287C286.356 169.041 283.47 170.79 283.47 175.241C283.47 180.397 287.583 181.26 292.037 181.26C297.718 181.26 301.899 180.397 301.899 174.446V169.041Z" fill="#2D3047"/>
<path d="M334.395 176.764C335.258 180.42 336.485 181.033 339.121 181.033C341.053 181.033 342.348 180.42 343.234 176.764L350.665 144.74H359.846L349.415 188.029C346.438 200.52 339.894 207.584 327.577 207.311L325.737 199.544C334.735 199.725 338.303 194.82 340.235 188.12C339.28 188.551 337.712 188.733 336.213 188.733C329.145 188.733 327.305 184.19 325.646 177.558L317.374 144.74H326.555L334.395 176.764Z" fill="#2D3047"/>
<path d="M399 174.901C399 184.508 393.319 188.868 380.389 188.868C369.026 188.868 362.664 184.689 362.664 175.423C362.664 165.657 369.572 162.25 380.479 162.25H390.092V157.98C390.092 152.575 385.979 151.348 379.775 151.348C374.617 151.348 370.163 151.961 367.367 153.006V145.125C370.503 144.08 374.526 143.649 379.252 143.649C391.046 143.649 399 147.056 399 157.957V174.901ZM390.092 169.041H380.479C374.548 169.041 371.662 170.79 371.662 175.241C371.662 180.397 375.775 181.26 380.229 181.26C385.911 181.26 390.092 180.397 390.092 174.446V169.041Z" fill="#2D3047"/>
</svg>
