<svg width="448" height="336" viewBox="0 0 448 336" fill="none" xmlns="http://www.w3.org/2000/svg">
<rect width="448" height="336" fill="white"/>
<path fill-rule="evenodd" clip-rule="evenodd" d="M122.233 188.34H132.781L121.937 169.354C127.211 166.369 130.249 161.116 130.249 154.291C130.249 143.247 122.402 136.359 109.807 136.359H89.6499V188.224H99.2803V166.242L113.067 171.252L122.233 188.34ZM99.2591 144.682H109.807C116.136 144.682 119.954 147.846 119.954 154.312C119.954 159.217 117.75 162.223 113.9 163.383L99.2803 158.109L99.2591 144.682ZM243.534 188.298V141.19H252.279V188.298H243.534ZM205.035 171.527C205.035 183.172 213.378 188.762 222.26 188.762C231.141 188.762 239.485 183.161 239.485 171.527C239.485 159.892 231.141 154.365 222.26 154.302C213.378 154.239 205.035 159.882 205.035 171.527ZM213.821 171.527C213.821 165.208 216.743 161.168 222.26 161.232V161.179C227.776 161.243 230.698 165.198 230.698 171.527C230.698 177.855 227.734 181.822 222.26 181.822C216.785 181.822 213.821 177.845 213.821 171.527ZM289.988 154.649L277.404 188.298H268.428L255.844 154.649H265.601L272.985 177.739L280.316 154.649H289.988ZM155.056 180.657C156.533 179.919 157.797 178.817 158.729 177.455L165.807 180.07C163.054 185.471 157.759 188.699 150.291 188.762C141.483 188.762 133.393 183.077 133.393 171.442C133.393 159.808 141.609 154.154 150.354 154.217C159.098 154.28 167.378 159.839 167.378 171.442C167.38 172.343 167.309 173.242 167.167 174.132H142.274C143.086 180.123 146.926 181.737 150.291 181.674C151.94 181.745 153.58 181.396 155.056 180.657ZM158.159 167.908C157.083 163.067 153.645 161.253 150.291 161.179C147 161.116 143.561 162.993 142.411 167.908H158.159ZM348.837 154.132C343.858 154.364 340.473 156.421 338.447 160.841L336.148 154.692H326.96L329.703 162.075V188.392H338.447V177.56C338.447 165.25 342.213 161.885 349.955 161.885C350.578 161.885 351.158 161.885 351.727 161.97L348.837 154.132ZM358.309 184.068C358.309 187.068 355.877 189.5 352.877 189.5C349.877 189.5 347.445 187.068 347.445 184.068C347.445 181.068 349.877 178.636 352.877 178.636C355.877 178.636 358.309 181.068 358.309 184.068ZM315.958 177.317C315.038 178.723 313.769 179.866 312.276 180.635C310.782 181.404 309.114 181.773 307.435 181.705C304.071 181.768 300.231 180.154 299.429 174.163H324.259C324.398 173.273 324.465 172.374 324.46 171.473C324.46 159.871 316.18 154.312 307.435 154.248C298.691 154.185 290.474 159.839 290.474 171.473C290.474 183.108 298.617 188.762 307.456 188.762C314.988 188.698 320.314 185.407 323.057 179.922L315.958 177.317ZM307.435 161.179C310.8 161.252 314.228 163.067 315.304 167.908H299.556C300.706 162.993 304.134 161.115 307.456 161.179H307.435ZM185.436 161.031C181.154 161.095 180.236 163.141 180.236 164.417C180.236 167.667 183.979 167.825 188.349 168.009C194.473 168.267 201.828 168.577 201.828 177.529C201.828 187.823 189.993 188.699 186.291 188.699C182.905 188.688 172.03 188.182 170.521 178.741L179.508 177.834C180.679 180.629 182.937 181.589 185.721 181.684C190.732 181.822 192.546 180.166 192.968 178.52C193.049 178.174 193.088 177.82 193.084 177.465C193.084 174.165 189.283 173.989 184.87 173.786C178.762 173.504 171.481 173.168 171.481 164.417C171.481 155.029 182.272 154.175 185.943 154.196C189.613 154.217 195.193 155.262 197.957 158.025C199.427 159.448 200.422 161.29 200.805 163.299L192.609 164.681C191.892 162.308 190.457 160.968 185.436 161.031Z" fill="#5EB9AE"/>
</svg>
