<svg width="448" height="336" viewBox="0 0 448 336" fill="none" xmlns="http://www.w3.org/2000/svg">
<path d="M448 0H0V336H448V0Z" fill="white"/>
<path fill-rule="evenodd" clip-rule="evenodd" d="M210.427 152.266C209.201 152.266 208.185 151.874 207.38 151.088C206.612 150.304 206.225 149.306 206.225 148.103C206.225 146.905 206.612 145.928 207.38 145.179C208.185 144.393 209.201 144 210.427 144C211.651 144 212.651 144.393 213.422 145.179C214.227 145.928 214.633 146.905 214.633 148.105C214.633 149.303 214.225 150.295 213.422 151.09C212.651 151.874 211.651 152.266 210.427 152.266ZM206.7 185.558V156.116H214.148V185.56H206.7V185.558ZM140.568 151.09C141.375 151.876 142.388 152.266 143.614 152.266C144.838 152.266 145.839 151.876 146.61 151.09C147.415 150.295 147.821 149.306 147.821 148.105C147.821 146.907 147.415 145.928 146.61 145.179C145.841 144.393 144.838 144.002 143.614 144.002C142.391 144.002 141.373 144.393 140.568 145.179C139.799 145.93 139.415 146.907 139.415 148.105C139.415 149.306 139.799 150.304 140.57 151.09H140.568ZM139.889 156.114V185.56H147.34V156.114H139.889ZM153.506 156.114V185.567H160.953V170.367C160.953 167.677 161.554 165.579 162.76 164.071C163.999 162.564 165.61 161.817 167.592 161.817C169.606 161.817 171.098 162.487 172.07 163.835C173.043 165.177 173.526 167.12 173.526 169.654V185.564H180.975V170.367C180.975 167.677 181.576 165.579 182.778 164.071C184.019 162.564 185.649 161.817 187.665 161.817C189.647 161.817 191.103 162.487 192.035 163.835C193.007 165.177 193.49 167.12 193.49 169.654V185.549H200.939V168.928C200.939 164.497 199.93 161.134 197.913 158.837C195.897 156.544 193.007 155.395 189.239 155.395C187.212 155.38 185.214 155.871 183.425 156.823C181.721 157.733 180.278 159.063 179.231 160.685C177.37 157.164 174.205 155.403 169.745 155.403C167.729 155.403 165.945 155.837 164.39 156.709C162.904 157.513 161.643 158.676 160.723 160.093L160.085 156.116H153.506V156.114ZM220.325 144.251V185.567H227.772V144.251H220.325ZM246.246 186.271C243.53 186.271 241.101 185.601 238.973 184.252C236.837 182.904 235.151 181.068 233.912 178.734C232.674 176.4 232.049 173.744 232.049 170.783C232.049 167.82 232.671 165.179 233.912 162.888C235.151 160.554 236.845 158.734 238.973 157.426C241.108 156.078 243.53 155.408 246.246 155.408C248.414 155.408 250.321 155.82 251.951 156.655C253.582 157.484 254.899 158.654 255.906 160.162V156.121H263.354V185.569H256.719L255.906 181.35C254.976 182.655 253.737 183.806 252.183 184.789C250.662 185.783 248.689 186.275 246.246 186.275V186.271ZM247.813 179.628C250.222 179.628 252.183 178.812 253.694 177.193C255.249 175.531 256.026 173.409 256.026 170.839C256.026 168.269 255.249 166.171 253.694 164.544C252.183 162.88 250.222 162.053 247.813 162.053C245.449 162.053 243.489 162.867 241.934 164.486C240.38 166.107 239.602 168.205 239.602 170.783C239.602 173.354 240.38 175.473 241.934 177.137C243.489 178.79 245.449 179.628 247.815 179.628H247.813ZM269.332 156.114V185.56H276.78V172.14C276.78 169.884 277.124 168.121 277.824 166.858C278.564 165.592 279.574 164.701 280.853 164.187C282.135 163.672 283.591 163.414 285.223 163.414H287.316L285.223 156.114C283.703 156.114 282.101 156.385 280.918 157.121C279.131 158.227 277.666 159.782 276.669 161.63L275.969 156.112H269.332V156.114ZM297.927 185.567L289.485 156.121H296.877L301.882 177.313L307.701 156.121H315.968L321.784 177.313L326.852 156.121H334.244L325.746 185.567H318.005L311.837 163.537L305.664 185.567H297.927ZM341.873 184.375C344.127 185.637 346.704 186.273 349.616 186.273C351.939 186.273 354.019 185.837 355.847 184.967C357.647 184.145 359.238 182.926 360.502 181.403C361.758 179.911 362.689 178.174 363.237 176.302H355.67C355.159 177.414 354.382 178.32 353.339 179.035C352.325 179.705 351.065 180.042 349.553 180.042C347.537 180.042 345.807 179.391 344.372 178.086C342.979 176.778 342.201 174.979 342.049 172.682H363.986C364.021 172.166 364.042 171.675 364.042 171.196C364.085 170.725 364.107 170.268 364.107 169.832C364.107 167.142 363.482 164.709 362.243 162.532C361.078 160.349 359.322 158.538 357.176 157.306C355.005 156.043 352.506 155.408 349.671 155.408C346.64 155.408 344.009 156.078 341.755 157.426C339.543 158.734 337.8 160.567 336.518 162.944C335.279 165.315 334.656 168.027 334.656 171.075C334.656 174.081 335.294 176.729 336.574 179.028C337.803 181.273 339.64 183.126 341.873 184.375ZM344.84 163.183C346.234 162.109 347.844 161.574 349.671 161.574C351.576 161.574 353.165 162.154 354.444 163.294C355.726 164.443 356.42 165.987 356.538 167.928H342.161C342.551 165.794 343.44 164.209 344.84 163.18V163.183ZM384.812 186.273C382.634 186.273 380.736 185.859 379.107 185.023C377.505 184.22 376.142 183.012 375.152 181.519L374.331 185.56H367.697V144.249H375.143V160.331C376.075 159.026 377.301 157.877 378.812 156.891C380.367 155.899 382.362 155.408 384.805 155.408C387.519 155.408 389.943 156.078 392.077 157.426C394.222 158.786 395.969 160.69 397.138 162.944C398.377 165.28 399 167.936 399 170.897C399 173.86 398.377 176.516 397.138 178.85C395.96 181.083 394.214 182.966 392.077 184.31C389.956 185.625 387.528 186.273 384.812 186.273ZM383.242 179.628C385.608 179.628 387.568 178.814 389.123 177.193C390.678 175.574 391.455 173.474 391.455 170.897C391.455 168.327 390.678 166.208 389.123 164.544C387.568 162.882 385.617 162.053 383.242 162.053C380.835 162.053 378.862 162.882 377.307 164.544C375.796 166.165 375.04 168.263 375.04 170.841C375.04 173.409 375.796 175.531 377.307 177.193C378.853 178.814 380.835 179.628 383.242 179.628ZM130.42 169.293C132.129 169.852 133.486 170.7 134.495 171.848C135.502 172.963 136.007 174.56 136.014 176.658C136.072 178.406 135.583 180.129 134.614 181.586C133.641 183.048 132.247 184.197 130.42 185.025C128.595 185.863 126.444 186.275 123.957 186.275C121.398 186.275 119.143 185.854 117.205 185.025C115.266 184.156 113.711 182.971 112.55 181.463C111.613 180.251 110.962 178.844 110.645 177.345L117.387 176.289C117.632 176.838 118.568 178.243 119.571 178.973C119.644 179.041 119.717 179.101 119.794 179.17L119.828 179.2C120.88 179.995 122.216 180.385 123.848 180.385C125.48 180.385 126.661 180.051 127.397 179.381C128.172 178.709 128.556 177.938 128.556 177.066C128.556 175.795 128.013 174.947 126.927 174.511C125.836 174.039 124.322 173.583 122.383 173.147C121.111 172.863 119.85 172.527 118.604 172.14C117.375 171.764 116.187 171.267 115.055 170.657C114.042 170.056 113.169 169.245 112.494 168.28C111.835 167.294 111.506 166.09 111.506 164.66C111.506 162.047 112.515 159.857 114.529 158.072C116.588 156.295 119.459 155.401 123.148 155.401C126.562 155.401 129.28 156.217 131.296 157.836C132.884 159.082 134.033 160.801 134.577 162.745L128.353 164.316L128.346 164.286C128.346 164.286 127.528 162.68 126.199 161.974C125.413 161.51 124.376 161.274 123.09 161.274C121.69 161.274 120.603 161.546 119.826 162.103C119.092 162.661 118.72 163.352 118.72 164.181C118.72 165.051 119.287 165.744 120.408 166.257C121.529 166.773 123.028 167.249 124.889 167.685C126.903 168.164 128.754 168.699 130.418 169.291L130.42 169.293Z" fill="black"/>
<path d="M93.3887 157.155C90.8121 153.137 87.0825 149.781 82.8033 148.076L81.5365 147.647C80.1383 147.215 78.6842 146.991 77.2207 146.981C72.585 147.003 68.834 150.838 68.834 155.57C68.834 157.541 69.4846 159.353 70.5753 160.796L70.0514 160.109C70.3026 160.483 70.5753 160.852 70.8909 161.226C72.2222 162.836 74.1117 164.509 76.5594 166.407C82.5821 171.066 86.4878 175.201 86.8099 180.327C86.8872 181.018 86.9344 181.724 86.9344 182.439C86.9344 185.044 86.3676 187.801 85.4013 189.74H85.4099C85.4099 189.74 84.9955 190.498 85.2553 190.719C85.3885 190.833 85.6762 190.918 86.1786 190.611C88.8763 188.856 91.1986 186.583 93.0108 183.923C95.6817 179.986 97.1396 175.353 97.2042 170.596C97.2757 165.838 95.949 161.165 93.3887 157.155Z" fill="#FE7919"/>
<path d="M75.1185 174.665L71.346 171.551C63.4445 165.786 59.3349 159.568 61.5872 151.901C61.7912 151.203 62.0424 150.524 62.3301 149.861V149.852C62.3301 149.852 62.8884 148.682 61.6731 149.26C58.0281 151.239 54.952 154.121 52.7392 157.629C50.5264 161.137 49.251 165.155 49.035 169.297C48.7512 174.582 50.1985 179.815 53.1575 184.202C54.3524 185.88 55.8139 187.351 57.484 188.557H57.4776C65.8085 194.689 72.9542 191.462 72.9542 191.462H72.9606C74.7327 190.714 76.2436 189.458 77.3025 187.852C78.3614 186.246 78.9209 184.363 78.9104 182.44C78.9184 180.939 78.5802 179.458 77.9222 178.11C77.2641 176.762 76.304 175.583 75.1164 174.667L75.1185 174.665Z" fill="black"/>
</svg>
