<svg width="448" height="336" viewBox="0 0 448 336" fill="none" xmlns="http://www.w3.org/2000/svg">
<path d="M448 0H0V336H448V0Z" fill="white"/>
<path fill-rule="evenodd" clip-rule="evenodd" d="M147 174.53C147 177.191 146.4 179.75 145.2 182.308C144 184.866 142.3 187.015 140.2 188.857C137.8 190.802 135.1 192.337 131.9 193.36C128.8 194.486 125 194.998 120.5 194.998C109.6 195.1 102 191.723 99.4 190.188C97.3 188.96 96 186.606 96 184.15V178.624H96.4C98 179.647 104.9 183.741 108.3 184.969C112.7 186.504 116.8 187.322 120.6 187.322C126 187.322 130.3 186.299 133.3 184.15C136.3 182.103 137.9 179.238 137.9 175.759C137.9 172.791 137.2 170.539 135.7 169.107C134.3 167.674 132.1 166.548 129.2 165.832C127 165.218 124.6 164.706 122 164.297C119.4 163.888 116.7 163.376 113.8 162.762C107.9 161.534 103.6 159.282 100.7 156.315C97.9 153.245 96.5 149.254 96.5 144.239C96.5 138.611 98.8 133.903 103.5 130.321C108.1 126.842 114 125 121.2 125C125.8 125 131.7 125.819 135.7 127.558C138.7 128.889 139.8 131.243 139.8 133.289V137.69C138 136.666 136 135.745 133.7 134.927C129.6 133.494 125.4 132.778 121.1 132.778C116.4 132.778 112.6 133.801 109.7 135.745C106.9 137.792 105.4 140.35 105.4 143.42C105.4 146.286 106.1 148.435 107.5 150.072C108.9 151.71 111.4 152.938 115 153.756C116.9 154.166 119.6 154.677 123.1 155.291C126.6 155.905 129.6 156.519 132 157.133C136.9 158.464 140.6 160.51 143.1 163.171C145.7 165.934 147 169.721 147 174.53Z" fill="#649F8D"/>
<path fill-rule="evenodd" clip-rule="evenodd" d="M190.691 147.227L164.941 209.392C163.939 211.66 162.135 213 159.731 213H154.52L163.738 191.66L144 143H149.811C152.416 143 153.819 144.959 154.821 147.433L168.348 180.938L183.677 143H188.787C190.691 143 191.492 145.371 190.691 147.227Z" fill="#649F8D"/>
<path fill-rule="evenodd" clip-rule="evenodd" d="M222.429 181C222.429 180.695 222.429 180.491 222.429 180.185C222.429 178.251 221.823 176.723 220.71 175.705C219.598 174.687 217.374 173.77 214.139 173.057C212.927 172.752 211.41 172.447 209.388 172.141C207.468 171.734 205.749 171.428 204.131 170.919C199.784 169.799 196.65 168.068 194.73 165.828C192.91 163.587 192 160.736 192 157.376C192 155.339 192.404 153.303 193.213 151.47C194.123 149.637 195.336 148.008 197.156 146.582C198.874 145.157 200.997 144.037 203.524 143.222C206.153 142.407 208.983 142 212.219 142C215.251 142 220.003 142.815 223.036 143.731C226.068 144.648 229 147.193 229 150.452V154.932H228.596C226.473 153.303 223.845 151.979 220.71 150.859C217.678 149.739 214.645 149.23 211.612 149.23C208.478 149.23 205.951 149.841 203.828 151.063C201.705 152.285 200.593 154.016 200.593 156.358C200.593 158.394 201.2 160.023 202.514 161.042C203.727 162.06 205.85 162.977 208.58 163.587C210.096 163.995 211.915 164.3 213.735 164.708C215.656 165.115 217.274 165.42 218.588 165.726C221.823 166.439 224.451 167.661 226.473 169.29L222.429 181Z" fill="#649F8D"/>
<path fill-rule="evenodd" clip-rule="evenodd" d="M217.5 194.171C215.2 194.793 212.6 195 209.8 195C203 195 198.3 193.03 195.8 191.889C193.6 190.956 192 188.571 192 185.874V181H192.4C195 183.074 198 184.733 201.2 185.874C204.4 187.119 207.5 187.637 210.5 187.637C214.199 187.637 217 187.015 219.1 185.77C219.9 185.252 220.5 184.733 221 184.008L217.5 194.171Z" fill="#649F8D"/>
<path fill-rule="evenodd" clip-rule="evenodd" d="M247 174.5C247 169.27 251.068 165 255.949 165C260.83 165 265 169.27 265 174.5C265 179.73 260.932 184 255.949 184C250.966 184 247 179.73 247 174.5Z" fill="#649F8D"/>
<path d="M291 143H294.333C296.999 143 299 145.571 299 148.45V188.55C299 191.429 296.999 194 294.333 194H291V143Z" fill="#333333"/>
<path fill-rule="evenodd" clip-rule="evenodd" d="M281.916 193.897H277.435L256.249 133.909L236.592 189.583C235.676 192.151 233.843 194 231.195 194H226L250.444 126H257.268C260.629 126 263.074 127.849 264.194 131.033L284.462 187.221C285.786 190.816 284.564 193.897 281.916 193.897Z" fill="#333333"/>
<path fill-rule="evenodd" clip-rule="evenodd" d="M343.542 190.615C338.609 194.343 333.977 196 327.936 196C321.995 196 316.76 193.618 313.236 188.959C309.812 184.196 308 177.672 308 169.285C308 164.936 308.604 161.001 309.812 157.688C311.021 154.271 312.631 151.372 314.746 148.99C316.76 146.712 319.176 144.848 321.794 143.606C324.513 142.363 327.332 141.742 330.151 141.742C332.769 141.742 335.084 142.052 337.098 142.57C339.112 143.088 341.226 144.02 343.542 145.159V123H347.066C349.885 123 352 125.589 352 128.488V189.062C352 191.961 349.885 194.55 347.066 194.55H343.542V190.615ZM343.542 181.918V152.407C341.226 151.372 339.213 150.647 337.501 150.232C335.689 149.818 333.776 149.611 331.661 149.611C326.929 149.611 323.304 151.268 320.686 154.685C318.068 158.102 316.76 162.865 316.76 169.078C316.76 175.187 317.767 179.847 319.781 183.056C321.794 186.163 325.016 187.82 329.547 187.82C331.963 187.82 334.38 187.302 336.796 186.163C339.112 185.024 341.428 183.574 343.542 181.918Z" fill="#333333"/>
<path fill-rule="evenodd" clip-rule="evenodd" d="M290 131.5C290 128.988 291.989 127 294.5 127C297.011 127 299 128.988 299 131.5C299 134.012 297.011 136 294.5 136C291.989 136 290 134.012 290 131.5Z" fill="#333333"/>
</svg>
