<svg width="448" height="336" viewBox="0 0 448 336" fill="none" xmlns="http://www.w3.org/2000/svg">
<path d="M448 0H0V336H448V0Z" fill="white"/>
<path d="M49 161.112V148.267H55.8376V133.281H69.5128V147.839H81.9059V160.684H69.5128V181.236C69.5128 185.09 70.3675 187.659 72.0769 189.372C73.7863 190.656 77.6326 191.512 83.6155 191.512L84.4701 204.786H81.4787C72.9316 204.786 66.5214 203.073 62.2479 199.647C57.9744 196.222 55.8376 190.228 55.8376 181.236V161.112H49Z" fill="black"/>
<path d="M89.1709 204.358V129H102.846V152.549C106.692 149.124 111.82 147.411 117.803 147.411C133.188 147.411 140.88 156.403 140.88 174.814V204.358H127.205V178.239C127.205 171.817 126.35 167.107 124.641 164.538C122.932 161.541 119.94 160.256 114.812 160.256C110.966 160.256 107.974 161.541 105.838 163.682C103.701 165.823 102.419 169.248 102.419 173.102V204.358H89.1709Z" fill="black"/>
<path d="M145.154 176.526C145.154 168.391 148.146 161.54 153.701 155.974C159.257 150.408 166.094 147.411 174.641 147.411C183.188 147.411 190.026 150.408 195.582 155.974C201.137 161.54 203.701 168.819 203.701 176.954C203.701 177.811 203.701 179.095 203.701 180.808H159.257C160.539 184.661 162.248 187.231 165.24 189.371C168.231 191.512 171.65 192.368 175.496 192.368C178.915 192.368 181.906 191.94 184.043 190.656C186.18 189.371 188.316 187.658 190.026 185.09L201.564 191.512C195.582 200.504 187.034 205.214 175.496 205.214C166.949 205.214 159.684 202.645 153.701 197.078C148.146 191.94 145.154 185.09 145.154 176.526ZM159.684 170.104H189.171C186.607 163.681 181.479 160.256 174.641 160.256C171.223 160.256 168.231 161.112 165.667 162.825C163.103 164.966 160.966 167.535 159.684 170.104Z" fill="black"/>
<path d="M207.12 176.526C207.12 168.391 210.111 161.54 215.667 155.974C221.222 150.408 228.06 147.411 236.607 147.411C242.59 147.411 248.145 149.123 252.846 152.549V148.267H266.521V204.785H252.846V200.932C248.145 204.357 242.59 206.07 236.607 206.07C228.487 206.07 221.649 203.073 216.094 197.506C210.538 191.94 207.12 184.661 207.12 176.526ZM224.641 165.394C221.649 168.819 219.94 172.244 219.94 176.954C219.94 181.236 221.649 185.09 224.641 188.515C228.06 191.94 231.479 193.225 236.179 193.225C240.453 193.225 244.299 191.512 247.718 188.515C251.137 185.09 252.419 181.664 252.419 176.954C252.419 172.673 250.709 168.819 247.718 165.394C244.726 161.968 240.88 160.684 236.179 160.684C231.906 160.256 228.06 161.968 224.641 165.394Z" fill="black"/>
<path d="M269.94 161.112V148.267H276.778V133.281H290.453V147.839H302.847V160.684H290.453V181.236C290.453 185.09 291.308 187.659 293.017 189.372C294.727 190.656 298.573 191.512 304.556 191.512L305.409 204.786H302.419C293.872 204.786 287.462 203.073 283.188 199.647C278.915 196.222 276.778 190.228 276.778 181.236V161.112H269.94Z" fill="black"/>
<path d="M369.086 204.357V148.267H382.759V153.833C386.607 149.98 392.163 147.839 399 147.839L398.144 162.397C392.163 162.397 387.889 163.253 385.751 165.394C383.615 167.535 382.333 170.96 382.333 175.67V204.357H369.086Z" fill="black"/>
<path fill-rule="evenodd" clip-rule="evenodd" d="M305.41 176.526C305.41 184.661 308.401 191.512 313.958 197.078C319.512 202.645 326.351 205.642 334.47 205.642C342.589 205.642 349.428 202.645 354.982 197.078C360.538 191.512 363.53 184.661 363.53 176.526C363.53 168.391 360.538 161.54 354.982 155.974C349.428 150.408 342.589 147.411 334.47 147.411V160.256C338.744 160.256 342.589 161.968 346.01 164.966C349.428 168.391 350.71 171.816 350.71 176.526C350.71 180.808 348.999 184.661 346.01 188.087C343.018 191.512 339.171 192.797 334.47 192.797C330.196 192.797 326.351 191.084 322.933 188.087C319.941 184.661 318.232 181.236 318.232 176.526H305.41Z" fill="black"/>
</svg>
