<svg width="448" height="336" viewBox="0 0 448 336" fill="none" xmlns="http://www.w3.org/2000/svg">
<path d="M448 0H0V336H448V0Z" fill="#59D793"/>
<path d="M125.371 144.524L105.823 190.851H90.4697L70.9214 144.524H87.7026L98.7711 171.571L110.107 144.524H125.371Z" fill="black"/>
<path d="M259.889 190.672L279.437 146.131H294.79L314.428 190.672H297.646L286.578 164.697L275.242 190.672H259.889Z" fill="white"/>
<path d="M134.744 186.12C130.816 182.282 128.763 176.926 128.763 169.964V144.524H144.384V169.518C144.384 172.91 145.009 175.409 146.169 176.926C147.419 178.444 149.115 179.247 151.436 179.247C153.756 179.247 155.452 178.444 156.702 176.926C157.952 175.409 158.487 172.91 158.487 169.518V144.524H173.84V169.964C173.84 176.926 171.877 182.282 167.86 186.12C163.932 189.959 158.398 191.833 151.257 191.833C144.205 191.833 138.671 189.959 134.744 186.12Z" fill="black"/>
<path d="M178.214 144.524H193.835V178.712H214.722V190.851H178.214V144.524Z" fill="black"/>
<path d="M227.665 187.816C223.916 185.852 220.97 183.085 218.828 179.515C216.686 175.944 215.615 171.927 215.615 167.464C215.615 163.001 216.686 158.984 218.828 155.414C220.97 151.844 223.916 149.076 227.665 147.113C231.414 145.149 235.699 144.167 240.43 144.167C244.714 144.167 248.642 144.97 252.034 146.488C255.425 148.005 258.193 150.237 260.424 153.093L250.962 161.573C248.195 158.092 244.982 156.396 241.233 156.396C238.109 156.396 235.609 157.378 233.646 159.431C231.682 161.484 230.789 164.162 230.789 167.554C230.789 170.946 231.771 173.623 233.646 175.676C235.52 177.729 238.109 178.711 241.233 178.711C244.982 178.711 248.195 177.015 250.962 173.534L260.424 182.014C258.193 184.87 255.425 187.102 252.034 188.619C248.642 190.137 244.803 190.94 240.43 190.94C235.699 190.851 231.503 189.869 227.665 187.816Z" fill="white"/>
<path d="M360.576 146.131V190.672H348.258L331.298 170.41V190.672H316.659V146.131H328.977L345.937 166.393V146.131H360.576Z" fill="white"/>
<path d="M377 179.872H366.199V190.673H377V179.872Z" fill="white"/>
</svg>
