<svg width="448" height="336" viewBox="0 0 448 336" fill="none" xmlns="http://www.w3.org/2000/svg">
<rect width="448" height="336" fill="white"/>
<g clip-path="url(#clip0_1_130)">
<path d="M193.278 178.216V174.533C193.278 161.354 183.828 151.567 170.134 151.567C156.441 151.567 146.798 161.257 146.798 174.533C146.798 187.713 156.441 197.5 170.134 197.5C180.356 197.5 188.263 192.17 191.542 183.836H180.356C178.138 186.647 174.763 188.003 170.134 188.003C163.674 188.003 159.141 184.321 157.791 178.507V178.313H193.278V178.216ZM157.984 169.688C159.623 164.358 163.963 161.16 170.134 161.16C176.21 161.16 180.549 164.455 182.285 169.688V169.882H157.984V169.688Z" fill="#2E3E56"/>
<path d="M222.014 151.567C215.553 151.567 210.346 154.377 207.55 158.835H207.357V138H196.942V174.146C196.942 188.294 206.392 197.403 220.086 197.403C233.779 197.403 243.422 187.713 243.422 174.436C243.422 159.125 232.429 151.567 222.014 151.567ZM220.086 187.713C212.468 187.713 207.357 182.286 207.357 174.63C207.357 166.975 212.468 161.451 220.086 161.451C227.704 161.451 232.911 166.878 232.911 174.63C232.911 182.189 227.704 187.713 220.086 187.713Z" fill="#2E3E56"/>
<path d="M258.465 187.034V186.84L283.344 161.451V152.73H245.64V161.936H269.265V162.226L244.386 187.616V196.337H284.405V187.034H258.465Z" fill="#2E3E56"/>
<path d="M309.381 152.73V196.337H319.795V152.73H309.381V152.73Z" fill="#2E3E56"/>
<path d="M347.664 151.567C333.97 151.567 324.327 161.354 324.327 174.533C324.327 187.713 333.97 197.5 347.664 197.5C361.357 197.5 371 187.809 371 174.533C371 161.354 361.357 151.567 347.664 151.567ZM347.664 187.713C340.046 187.713 334.838 182.286 334.838 174.63C334.838 166.975 340.046 161.451 347.664 161.451C355.282 161.451 360.393 166.878 360.393 174.63C360.393 182.189 355.282 187.713 347.664 187.713Z" fill="#2E3E56"/>
<path d="M132.43 152.73V177.634C132.43 184.805 128.766 187.713 123.655 187.713C118.64 187.713 114.88 184.708 114.88 177.634V152.73H104.369V177.634C104.369 184.708 100.704 187.713 95.6898 187.713C90.7718 187.713 87.1074 184.999 86.9145 178.313C85.4681 179.379 83.6359 180.057 81.7073 180.057C79.7787 180.057 77.9465 179.379 76.5 178.313C76.6929 191.589 84.5038 197.5 94.629 197.5C101.186 197.5 106.49 194.787 109.576 189.844H109.769C112.951 194.787 118.158 197.5 124.715 197.5C134.937 197.5 142.844 191.298 142.844 177.634V152.73H132.43ZM86.9145 164.068V152.73H76.5V164.068C77.9465 163.002 79.7787 162.323 81.7073 162.323C83.7323 162.323 85.4681 163.002 86.9145 164.068Z" fill="#2E3E56"/>
<path d="M296.845 196.628C299.667 196.628 301.955 194.328 301.955 191.492C301.955 188.655 299.667 186.356 296.845 186.356C294.022 186.356 291.734 188.655 291.734 191.492C291.734 194.328 294.022 196.628 296.845 196.628Z" fill="#2E3E56"/>
<path d="M86.6252 171.142C86.6252 173.855 84.4073 176.084 81.7072 176.084C79.0072 176.084 76.7892 173.855 76.7892 171.142C76.7892 168.428 79.0072 166.2 81.7072 166.2C84.4073 166.2 86.6252 168.428 86.6252 171.142Z" fill="#FC9F00"/>
</g>
<defs>
<clipPath id="clip0_1_130">
<rect width="294.5" height="59.5" fill="white" transform="translate(76.5 138)"/>
</clipPath>
</defs>
</svg>
