<svg width="144" height="144" viewBox="0 0 144 144" fill="none" xmlns="http://www.w3.org/2000/svg">
<rect width="144" height="144" transform="matrix(-1 0 0 1 144 0)" fill="#FCFCFC"/>
<path fill-rule="evenodd" clip-rule="evenodd" d="M61.344 19.1113C56.2497 20.857 50.9717 25.8452 48.5846 31.1733C46.1048 36.7055 45.6057 40.1169 43.0725 68.8334L41 92.3297L45.8933 97.8393C48.5846 100.87 51.0305 103.763 51.3278 104.267C51.6252 104.773 51.2962 108.394 50.5968 112.314C49.1808 120.248 49.5768 122.414 53.039 125.669C54.7644 127.291 55.0459 127.338 56.8708 126.309C58.2356 125.538 59.2843 123.861 60.2885 120.841L61.7369 116.486L64.6797 119.146C68.6199 122.709 71.1644 122.68 75.2055 119.027C78.8092 115.769 80.1281 113.265 90.1909 90.566C98.7797 71.1939 103 60.9514 103 59.48C103 58.9247 101.868 57.8022 100.484 56.9855C97.8447 55.4267 96.2247 52.7853 96.2247 50.0406C96.2247 49.0733 94.8486 47.1476 92.8371 45.2995C89.682 42.4004 89.4494 41.9258 89.4494 38.3916C89.4494 35.879 89.0542 34.269 88.2788 33.6256C86.3124 31.9915 85.4452 29.7184 84.9913 25.0037C84.599 20.9338 84.3341 20.3801 82.2977 19.3592C78.9281 17.6708 65.9963 17.5179 61.344 19.1113ZM79.0847 26.1737C79.3881 29.3297 79.9519 30.502 82.3512 32.9611C84.8136 35.485 85.2209 36.3597 85.047 38.7623C84.8046 42.13 87.1578 46.0755 90.7661 48.3508C92.5254 49.4605 93.163 50.4271 93.1841 52.0183C93.2044 53.5206 94.156 55.1216 96.3068 57.2748L99.4008 60.3705L96.9 62.4597C91.4398 67.0215 84.8264 63.8068 83.0927 55.7492C82.7787 54.2891 81.5667 52.5811 79.9903 51.3779C76.5507 48.7523 75.146 45.8269 75.146 41.2884C75.146 38.3682 74.7214 37.037 73.2188 35.2499C69.8086 31.1936 69.393 26.4404 72.2447 24.0951C73.1383 23.3597 75.0564 22.803 77.8734 22.4609C78.3597 22.4022 78.8739 23.9775 79.0847 26.1737ZM64.8272 26.8698C64.1038 29.6378 65.4257 33.728 67.9484 36.5299C69.9245 38.7231 70.4613 39.9797 70.4936 42.4863C70.5523 47.0738 72.6429 50.8965 76.3407 53.1763C78.8867 54.7464 79.6004 55.6776 79.964 57.9031C80.4142 60.6606 84.1564 65.4522 86.4382 66.192C87.3355 66.4836 85.4926 71.7612 77.4669 91.889C71.9112 105.822 67.1128 117.063 66.8026 116.872C66.4932 116.68 61.4238 110.686 55.5375 103.55L44.8356 90.5773L45.3219 83.6468C46.22 70.8654 49.5098 43.8786 50.7504 39.1179C52.2974 33.1803 55.2364 29.0826 59.4439 26.9987C63.6498 24.9148 65.3482 24.8748 64.8272 26.8698ZM56.3355 109.766C57.9443 112.027 57.9458 112.073 56.6253 117.677C55.8951 120.777 55.0783 123.314 54.8096 123.314C54.5416 123.314 53.8806 122.489 53.3416 121.482C52.5436 119.989 52.5368 118.522 53.3062 113.571C53.8264 110.227 54.3564 107.493 54.4843 107.493C54.6123 107.493 55.4457 108.516 56.3355 109.766Z" fill="black"/>
</svg>
