<svg width="144" height="144" viewBox="0 0 144 144" fill="none" xmlns="http://www.w3.org/2000/svg">
<rect width="144" height="144" transform="matrix(-1 0 0 1 144 0)" fill="#FCFCFC"/>
<path d="M64.4983 99.928V73.8794H34.1017V99.928H26.4826V43.7221H34.1017V67.4969H64.4983V43.7221H72.1174V99.928H64.4983Z" fill="black"/>
<path d="M113.164 99.928V62.4308C113.164 58.2822 113.284 54.2931 113.523 50.4636C112.22 55.2239 111.05 58.947 110.013 61.633L95.4924 99.928H90.147L75.4274 61.633L73.1935 54.8516L71.8771 50.4636L71.9968 54.8915L72.1564 62.4308V99.928H65.3749V43.7221H75.3875L90.3465 82.6953C90.8784 84.2643 91.3836 85.953 91.8623 87.7614C92.3676 89.5431 92.7 90.8329 92.8596 91.6308C93.0723 90.567 93.5111 88.9581 94.176 86.804C94.8674 84.6233 95.3328 83.2537 95.5721 82.6953L110.252 43.7221H120.025V99.928H113.164Z" fill="black"/>
</svg>
