<svg width="144" height="144" viewBox="0 0 144 144" fill="none" xmlns="http://www.w3.org/2000/svg">
<rect width="144" height="144" transform="matrix(-1 0 0 1 144 0)" fill="#FCFCFC"/>
<path fill-rule="evenodd" clip-rule="evenodd" d="M28.6735 21.935C29.0097 22.4494 30.825 24.9515 32.7076 27.495C34.5898 30.0389 37.064 33.4049 38.2057 34.975C40.5469 38.1952 46.3606 46.1172 57.8914 61.8C62.2226 67.6905 66.3271 73.3304 67.0129 74.3331L68.26 76.1562V99.5781V123L92.655 122.993C116.448 122.985 117.088 122.968 118.574 122.294C120.631 121.361 121.256 120.749 122.195 118.75C122.902 117.245 122.994 116.551 122.997 112.71L123 108.371L103.432 108.385C84.0605 108.4 83.8534 108.393 82.8565 107.683C80.7084 106.154 80.84 109.07 80.84 63.007V21H54.4509H28.0618L28.6735 21.935ZM90.1036 60.185L90.19 99.37L106.595 99.4584L123 99.5465V63.4578C123 35.8876 122.901 27.0384 122.582 25.9694C122.042 24.163 119.837 21.9578 118.031 21.4182C117.027 21.1183 112.868 21 103.324 21H90.0173L90.1036 60.185ZM21 72.0456C21 106.339 21.0966 116.954 21.4182 118.031C21.9578 119.837 24.163 122.042 25.9694 122.582C26.9898 122.887 31.6638 123 43.2244 123H59.08V100.951V78.9027L52.8546 70.4363C49.4308 65.7797 42.9807 56.9975 38.5209 50.92C23.8635 30.946 21.2808 27.46 21.1397 27.46C21.0629 27.46 21 47.5234 21 72.0456Z" fill="black"/>
</svg>
